<svg id="Réteg_1" data-name="Réteg 1" xmlns="http://www.w3.org/2000/svg" xmlns:xlink="http://www.w3.org/1999/xlink" viewBox="0 0 1180.6 778.21"><defs><style>.cls-1{fill:none;}.cls-2{font-size:220px;font-family:Courgette-Regular, Courgette;}.cls-10,.cls-2{fill:#9282b6;}.cls-3{stroke:#9282b6;stroke-miterlimit:10;}.cls-4{font-size:80px;fill:#4c4b4c;}.cls-5{clip-path:url(#clip-path);}.cls-6{fill:#9180b5;}.cls-7{fill:#9180b6;}.cls-8{fill:#9181b6;}.cls-9{fill:#9080b5;}.cls-11{fill:#9181b5;}.cls-12{fill:#9182b6;}.cls-13{fill:#9382b8;}.cls-14{fill:#8a7ab0;}.cls-15{fill:#9381b7;}.cls-16{fill:#9281b6;}.cls-17{fill:#7a6ca2;}.cls-18{fill:#9281b7;}.cls-19{fill:#9080b4;}.cls-20{fill:#9281b5;}.cls-21{fill:#8474aa;}.cls-22{fill:#8b7bad;}.cls-23{fill:#9482b6;}.cls-24{fill:#7e70a3;}.cls-25{fill:#7c6da6;}.cls-26{fill:#8676ae;}.cls-27{fill:#8476ab;}.cls-28{fill:#8b7aaf;}.cls-29{fill:#9181b4;}.cls-30{fill:#7e6ea5;}.cls-31{fill:#8a7aaa;}.cls-32{fill:#796b9f;}.cls-33{fill:#8677ab;}.cls-34{fill:#8675ab;}.cls-35{fill:#9382b5;}.cls-36{fill:#8676ac;}.cls-37{fill:#8b7cb0;}.cls-38{fill:#8477a7;}.cls-39{fill:#8475a9;}.cls-40{fill:#8e7eaf;}.cls-41{fill:#8676aa;}.cls-42{fill:#9280b5;}.cls-43{fill:#8374a9;}.cls-44{fill:#8377a8;}.cls-45{fill:#8575ab;}.cls-46{fill:#7f71a7;}.cls-47{fill:#8a7bb0;}.cls-48{fill:#8679a8;}.cls-49{fill:#8a79ad;}.cls-50{fill:#8778ae;}.cls-51{fill:#9888b7;}.cls-52{fill:#8778ad;}.cls-53{fill:#8273a8;}.cls-54{fill:#8174a3;}.cls-55{fill:#7d6fa1;}.cls-56{fill:#8373a9;}.cls-57{fill:#8d7cae;}.cls-58{fill:#7e6fa4;}.cls-59{fill:#8a7bac;}.cls-60{fill:#8173a5;}.cls-61{fill:#8477a9;}.cls-62{fill:#9988b8;}.cls-63{fill:#8675a9;}.cls-64{fill:#8e80b2;}.cls-65{fill:#8577aa;}.cls-66{fill:#7f72a1;}.cls-67{fill:#8678a9;}.cls-68{fill:#897ab0;}.cls-69{fill:#7c6da4;}.cls-70{fill:#8779ac;}.cls-71{fill:#8678a8;}.cls-72{fill:#8c7fb2;}.cls-73{fill:#7e70a1;}.cls-74{fill:#8276a5;}.cls-75{fill:#877bab;}.cls-76{fill:#8275a6;}.cls-77{fill:#8173a1;}.cls-78{fill:#7e709d;}.cls-79{fill:#8276a2;}.cls-80{fill:#8375a5;}.cls-81{fill:#897baa;}.cls-82{fill:#8073a7;}.cls-83{fill:#7f73a0;}.cls-84{fill:#8777ae;}.cls-85{fill:#897ba7;}.cls-86{fill:#7d70a1;}.cls-87{fill:#8d7fb1;}.cls-88{fill:#8171a8;}.cls-89{fill:#8476aa;}.cls-90{fill:#8976a9;}.cls-91{fill:#8679a5;}.cls-92{fill:#beb6cd;}.cls-93{fill:#8375a4;}.cls-94{fill:#7f6f9c;}.cls-95{fill:#7c719f;}.cls-96{fill:#786b9c;}.cls-97{fill:#8577a4;}.cls-98{fill:#8071aa;}.cls-99{fill:#8779a4;}.cls-100{fill:#8779aa;}.cls-101{fill:#8279a1;}.cls-102{fill:#8577a6;}.cls-103{fill:#7e73a3;}.cls-104{fill:#766aa5;}.cls-105{fill:#8873b1;}.cls-106{fill:#8276a6;}.cls-107{fill:#7b6f9a;}.cls-108{fill:#8070a5;}.cls-109{fill:#8072a3;}.cls-110{fill:#7a6da3;}.cls-111{fill:#8571ae;}.cls-112{fill:#7e72a0;}.cls-113{fill:#7b6f95;}.cls-114{fill:#8574ac;}.cls-115{fill:#726898;}.cls-116{fill:#7e7099;}.cls-117{fill:#7d70a0;}.cls-118{fill:#7d6ea9;}.cls-119{fill:#7f72a0;}.cls-120{fill:#786a94;}.cls-121{fill:#81779f;}.cls-122{fill:#8476a1;}.cls-123{fill:#8477a3;}.cls-124{fill:#887ba6;}.cls-125{fill:#81749f;}.cls-126{fill:#776e9d;}.cls-127{fill:#786d9c;}.cls-128{fill:#7667a2;}.cls-129{fill:#8176a1;}.cls-130{fill:#746b90;}.cls-131{fill:#8074a0;}.cls-132{fill:#847a9d;}.cls-133{fill:#7c709c;}.cls-134{fill:#8b7bab;}.cls-135{fill:#847b9d;}.cls-136{fill:#786c97;}.cls-137{fill:#7565a1;}.cls-138{fill:#80719b;}.cls-139{fill:#7d7099;}.cls-140{fill:#867ba4;}.cls-141{fill:#8377a1;}.cls-142{fill:#7d6fa0;}.cls-143{fill:#766a96;}.cls-144{fill:#7b6d9e;}.cls-145{fill:#83779f;}.cls-146{fill:#706692;}.cls-147{fill:#726695;}.cls-148{fill:#6c5f91;}.cls-149{fill:#6d628c;}.cls-150{fill:#6d6092;}.cls-151{fill:#62538f;}.cls-152{fill:#70628b;}.cls-153{fill:#756797;}.cls-154{fill:#564c7a;}.cls-155{fill:#756c92;}.cls-156{fill:#7a6e8d;}.cls-157{fill:#726393;}.cls-158{fill:#776995;}.cls-159{fill:#746995;}.cls-160{fill:#82799c;}.cls-161{fill:#706681;}.cls-162{fill:#6e638b;}.cls-163{fill:#5a5072;}.cls-164{fill:#645b79;}.cls-165{fill:#766d8b;}.cls-166{fill:#7a6d99;}.cls-167{fill:#675c82;}.cls-168{fill:#75678f;}.cls-169{fill:#62577d;}.cls-170{fill:#81739c;}.cls-171{fill:#5e5475;}.cls-172{fill:#9c98a5;}.cls-173{fill:#5b516e;}.cls-174{fill:#65607b;}.cls-175{fill:#7b6d9b;}.cls-176{fill:#786e8b;}.cls-177{fill:#7e7791;}.cls-178{fill:#7c778f;}.cls-179{fill:#5c5484;}.cls-180{fill:#6c5f96;}.cls-181{fill:#6f6588;}.cls-182{fill:#706295;}.cls-183{fill:#746d92;}.cls-184{fill:#c4b6d6;}.cls-185{fill:#7e7298;}.cls-186{fill:#70668a;}.cls-187{fill:#88819c;}.cls-188{fill:#7c729e;}.cls-189{fill:#75698f;}.cls-190{fill:#64568b;}.cls-191{fill:#857d8c;}.cls-192{fill:#7e729c;}.cls-193{fill:#888284;}.cls-194{fill:#8e8698;}.cls-195{fill:#ccbedd;}.cls-196{fill:#d7cae4;}.cls-197{fill:#c3b5d9;}.cls-198{fill:#ded6e5;}.cls-199{fill:#7d6f97;}.cls-200{fill:#d0c2db;}.cls-201{fill:#b6a4cf;}.cls-202{fill:#c6b6d9;}.cls-203{fill:#8175a4;}.cls-204{fill:#d5cbdd;}.cls-205{fill:#827590;}.cls-206{fill:#eee9ef;}.cls-207{fill:#726b99;}.cls-208{fill:#877aae;}.cls-209{fill:#afa8b3;}.cls-210{clip-path:url(#clip-path-2);}</style><clipPath id="clip-path"><rect class="cls-1" x="93.6" width="1047.83" height="323.76"/></clipPath><clipPath id="clip-path-2"><rect class="cls-1" x="93.6" y="473.72" width="1047.83" height="323.76"/></clipPath></defs><title>Logo</title><text class="cls-2" transform="translate(98.83 454.76)"><tspan class="cls-3">Levendula</tspan><tspan class="cls-4"><tspan x="332.98" y="96">virágbolt</tspan></tspan></text><g class="cls-5"><path class="cls-6" d="M792.48,213.73c-2.06-4.57-4,0-5.73.35-6.58,1.18-12-3.79-18.33-3a6.79,6.79,0,0,0-5.31-5.17,23,23,0,0,0,.17-2.62c2.38-.24,3.34-2.27,4.74-3.73-.88-2.83-4.57-3.65-4.81-6.89l1.93-1.2c-1.39-3.93-6.12-3.4-8.23-6.11l-4.42,1.83c-2.32-3.51-3.24-3.44-5.16.39s-3.69,3.64-5.33-.2c-1.59-5-5.59-1.74-8.43-2.46l-7.5-.22q-1.3-2.61-2.62-5.21c2.18-.23,4.85.52,5.52-2.75,2.11,0,4.68.93,5.09-2.52a14.15,14.15,0,0,0,0-2.52c.06-1,.13-2.08.19-3.11,3.65,0,2.36-7.64,7.72-5,3.62-.33,2.55-3.1,2.72-5.23a6.61,6.61,0,0,1,2.49.09c3.34,1.57,9,8.32,10.92,12.72l-2.35,4.64c1.42,1.06,2.14,3.4,4.62,3.61a44.16,44.16,0,0,0,2.92,4.07,49.39,49.39,0,0,0,3.85,3.47l4.41-7.48c2.51-.34,5.17,6.84,7.55-.15a10.61,10.61,0,0,1,.15-2.52c1.61.28,3.51-.44,4.71,1.31,2.68,2.42-3.27,4.08-.42,6.65h3.71c3.11,1.92,4.06,6.14,7.89,7.24v15l6.13,6.53,5.78-3c.74-2.11-3-4.09-.55-6.51,2.47-1.66,3.95.47,5.76,1.47,1.65-1.22,1.16-3,1.2-4.74l5.72,2.51c4.13,1.53,1.81,5.11,2.46,7.75-.32,5.58-.76,11.18,4.21,15.31l1.14-2c4.72,2.73,2.81,6.93,1.35,10a14.6,14.6,0,0,0-1.27,8.6l-3.33.3-7.6-.34c-2.17-3.51-3-3.5-5.13,0-7.61,0-12.61-6.51-20.6-8.12.66-5.48-4.37-8.9-6.08-13.25,2.15-5.37,6.4,3,8.11-2.23,1.65-.3,3.58.38,4.81-1.37C798.22,213.52,795,214.08,792.48,213.73Z"/><path class="cls-7" d="M787.17,137.09v-8.57c-1.86-2.21-3.48-4.14-5.27-6.25l4.7-1.93c-.81-1.41-1.63-2.82-2.44-4.24,1.58-.22,2.78-.85,2.82-2.68l4.19,1.57,5.25-9.34c2.05-3.22,4.76,5.5,6.67-.37,6.78,2.75,6.59,9.8,8.84,15.81l1.74-2.76,5,2.63c.23,1.54.79,2.75,2.63,2.75-.43,3.26,2.43,5.46,2.78,8.37a78.79,78.79,0,0,1,.07,9.11l6.9,5.85c1.29-1.42,3.43-2.38,3.85-4.75l5.15-2.63c3.29-.39,2.3-2.95,2.48-4.91-.13-2.1,1.31-4.82-2.23-5.55,0-1.44.56-2.43,3.39-2.57,6,4.27,6.12,12.69,9.49,19.17,3.48,6.69,5.59,14.09,8.22,21l-3.13,10a23.2,23.2,0,0,0-2.36,0l-4.4-2.26c-3.36,4.07-8,1.43-12,2.39l-22.57-8.76c-1.58-3.74.13-8.95-3.46-12.47,1.49-.14,2.56-.72,2.52-2.44l4.61,1.76c1.12-1.76.75-4.35,3-5.46l-2.18-4.34c-2.57-3.92-4.73-4-7.86-.32h-2.7c-2.26-3.68-3.07-3.68-5.27,0l-5.35-2.75C796.61,138.66,791.82,138.05,787.17,137.09Z"/><path class="cls-8" d="M556.63,70.77a12.78,12.78,0,0,1-10.76,2.49,17.92,17.92,0,0,0-18.35,0c-8.3-3.4-11.81-3.37-18.61.12.23,3.53,2.86,2.66,5,2.71-.53,4-4.29,5.21-6.38,7.66-2.08.55-3.44-.7-5-1.5-2.63.31-.89,4.15-4.81,4.52-4.26-.72-9.45-3.06-15.23-2.84-2.43.09-4.6-2.23-5.47-5l.08-8.18c3.62-1.9,3.68-2.75.35-5.07-.06-3.45,2.6-2.64,4.57-2.9,4.29.58,7.1-1.11,8.24-5.37l-.08,0,5.54.08c3.2.66,5.62-1.46,9.25-3.86.43,7,8.2,6.24,9.21,12,2.3,3.6,3.09,3.59,5.25,0,6-4,11.7-8.36,18.75-10.38,2.18,3.36,3,3.33,5.05-.16l3.4,1.1c3.1,1.39.91-2.09,1.68-2.06,2.78-2.23,5.08-2.34,7.5-1-.25,2.3-2.5,1.38-3.58,2.37-.45,1.5.55,1.91,1.73,2.18.5,3.55,3.36,2.28,5.41,2.65.75,3.21-2.27,5.1-2.77,7.87A22.21,22.21,0,0,0,556.63,70.77Z"/><path class="cls-9" d="M281.13,250.85a8.57,8.57,0,0,1-2.42.22l-5.34,0-5.62-10.51c1.24-4-2.42-9.43,2.51-13.4,2.1-2.16,4.4-8.31,3.8-10.39-.06-.19-.76-.2-1.16-.3,3.56-2.67,1-8.38,5.32-10.68.22,1.7,1,2.81,2.88,2.85.72,3.47,6.38,2.65,6,6.78l7.12-1.52a2.52,2.52,0,0,0,2.65,2.67c3.05,5.19,8.11,5.45,13.29,5.39q1.32,2.57,2.63,5.13c-3,1-5.86,3.34-6.57,5.77-1.84,6.24-7.31,7.65-11.68,10.6a2.61,2.61,0,0,0-2.06-2.5c-2.36,1.93-4.23,4.09-3.52,7.46-.24,1.64-1.08,2.52-2.84,2.22C283.93,247.3,283.1,247.35,281.13,250.85Z"/><path class="cls-7" d="M371,208.5a7.83,7.83,0,0,0,5.45,5.43c.36,3.41,3,2.41,5.05,2.64,3.53-.19,2.47,3.68,4.53,5.07h3.49c.07,1.05.13,2.09.2,3.13-.82,2.7,1.24,4.57,2.07,7-6.73,5.92-15.93,6.64-23.45,10.9-2.61-3.58-5.18-3.69-7.69.1-3.22-.5-5.36,1.9-8,3,0-1.84-.07-3.68-.11-5.53a14.12,14.12,0,0,1-2.6-10.45c3.6-2.77,3.67-4.76.27-7.85,2.82-5.19,2.33-11.9,7.39-16.06,3.75.38,2.26-3.82,4.4-5l3.58-.3a3,3,0,0,0,2.93,2.85C368.67,205.44,367.54,208.08,371,208.5Z"/><path class="cls-10" d="M352.8,147.78c1.11,4.08,5.83,3,8,5.6,0,1.82,1.29,2.28,2.7,2.62l-2.88,4.29c-.29,2,1.25,3.13,2.35,4.8-6.09,5.52-13.93,7.86-21.08,11.44-1.11-3.78-4.66-3.08-6.28-1.95-3.63,2.55-7.16,2.64-11.07,1.79-.79-1.45.41-2.22,1-3.3-1.34-3.33-6.38-5-4.4-10.61,1.15-1.53,2.83-3.75,4.43-5.89-1.69-1.63-2.47-3.38-4.48-3.54-.23-1.74.71-2.5,2.28-2.73,4-.82,4.51-4.5,6.31-7.29,2-3,2-7.77,6.82-8.6a2.9,2.9,0,0,0,2.82,2.85L337,142l4.95.35c1.3,3.71,3.85,5.57,7.84,5.29Z"/><path class="cls-11" d="M848.53,274.66c3.11-1.19,3.48-1.22,6.55-.41.8-3.5,1.44-7.09,3.71-10,4.76.52,3.79,6.67,7.78,8l4.22.37c2,4.11.7,8.62.84,13-3.3,3.49-3.33,6.68-.12,10.37-.36,4.21-6.46,5.72-5.08,10.75-1.86.06-2.52,1.26-2.74,2.89-8.48-3.75-17.67-6.56-23.89-13.81-4-4.7-7.66-9.68-15.53-13.42,9.11-1.69,16.38-1.51,21.08-7.48Z"/><path class="cls-12" d="M305.17,282.8c4.59-7.46,4.24-17.44,11.7-23.57,2.61,2.74.41,6.09,1.78,8.86,2.47,2.08,6.52,2.42,7.5,6.37,0,3.67,2.72,2.9,4.92,2.94,1.86,4.73,5.88,2.48,9,2.61,3.51.15,7-.28,9.44,4.31-6.17,5.4-12.62,10.92-18.93,16.6a21.06,21.06,0,0,1-15.05,5.75c-.58-1.51,1.1-4-1.88-4.56-1.47,2.41-.63,4.9-.69,7.32l.05,0-2.83-.15c1.52-4.87-3-8.47-2.72-13.09.05-3.27,0-6.55.16-9.82C307.71,284.44,307,283.28,305.17,282.8Z"/><path class="cls-13" d="M355.38,126.53V115.66c2.9,2.49,3.95,6.48,7.46,5.43,3.94-2.34,4.12-4.3.71-7.75-.33-1.67.44-2.54,2-2.82,2.91-.3,4.84-3.67,8.18-2.6l5.34-2.36c.06,2.12-.81,4.74,2.71,5,2.88.45,3.8,3.44,6.09,4.65l4.44-1.94-.09-.11c.32,2.19.17,4-1.58,5.89-1.16,1.22.49,1.87,1.66,2.18v5.18c-2,6.19-2.07,8.34-.44,15.12-6.72,2.36-14.55-1.25-20.8,3.45-2.72-6.15-8.78-.3-12.45-3.52-.9-1.57-.67-4.22-3.5-4.41a11.82,11.82,0,0,1-.09-2.52C358.86,131.67,358.94,129.63,355.38,126.53Z"/><path class="cls-14" d="M326,529.12c.71-.4,2-.78,2.05-1.2.26-10.82,1.84-21.5,3.09-32.23,1.24-10.49,4.08-20.37,6.41-30.07,3.86,0,4.42,1.39,4.53,3.33.75,12.65-1.49,25-4.65,37.09-4.34,16.7-3.39,33.68-3.22,50.6,0,3.92,2.33,7.81,4.14,13.44.77-6.87,3.17-11.38,4-16.55.66-4.17,2.07-9.48,7.42-11.34.5,1.94-.91,4.79,2.54,5.33-2.71,9.54-5.41,19.09-8.06,28.44l5.52,8.87c-1.76.09-2.46,1.17-2.58,2.78-1.84-.19-2.53.93-2.82,2.49-.72,0-1.43,0-2.15,0-1.95-8.76-5.23-16.89-11.1-23.82q-1.22-2.55-2.45-5.11c0-1.86.07-3.73.1-5.6,2.08-.28,3.06-1.62,2.54-3.5C329.2,544.48,329.58,536.34,326,529.12Z"/><path class="cls-15" d="M389.94,179.57a2.18,2.18,0,0,1,2.12-2.83l5.66.1c1,4.88,3-.82,3.14-.62,3.23,2.73,4.82,4.72,5.25,7.49,2.67-.86,5.06,0,7.42,1.14.07,1.77,1.12,2.52,2.76,2.65l-2.75,5.13c0,1.94,1.24,2.73,2.95,3-.23,3.45-.45,6.91-.67,10.36-4.05-.6-5.43,1.37-4.94,5.13-6.88-.39-13,4.38-20.11,2.84-1.85-.4-3.27-.64-3.79-2.61-.28-3.68-3.07-2.65-5.24-2.79,0-.92.09-1.83.14-2.75,3.33-3.51,3.38-6.66.15-10.37-.1-2.13-.21-4.27-.3-6.22,1.82-2.72,2.73.58,4.32.1,1.52-1.08,3.25-2.36,3.72-4.67C393.33,182.62,393.35,181.8,389.94,179.57Z"/><path class="cls-16" d="M906.5,221.77c3.1.85,2.31,3.25,2.14,5.4-2.69.94-4.51-1.86-8.58-1.6l5.94,6.17c-1.74,5.84.15,13.29-8.14,16.92-4,.09-7.9-4.42-12.91-2.91l0,0,2.31-4.49c-3.57-1-6.33-4.42-10.54-3.46l-3.55-.4c-2.15-1.82,1.28-2.64.32-4.32-1.26-1.06-4.2-.43-4.3-3.36,3.79-1.16,5.6-3.66,5.17-7.67a9,9,0,0,0,5.64-5.63c1.84-.1,2.39-1.36,2.63-2.9l4.13,2.51c3.54-2.5,3.94-7,6.59-10.11,2.64.94,4.71,2.8,4.84,5.49C898.5,217.08,902,219.76,906.5,221.77Z"/><path class="cls-17" d="M922.22,418c1.86-.58,2.49-1.86,2.47-3.76-.07-6.73-.05-13.46-.06-20.19,0-16.26,1.23-32.65-.32-48.77a254.61,254.61,0,0,0-11-53.93c-4.08-12.58-8.46-25.06-12.7-37.58l3.14-.2A235.59,235.59,0,0,1,922.05,306c2.88,12.52,3.94,25.44,6,38.07,3.17,19.2,1.57,38.25,1.81,57.34.12,9-2,18-3,26.94l-4.51-2.54q0-3.94-.08-7.88Z"/><path class="cls-11" d="M702.27,78.78l-5.21,2.79c-.37-.74-.73-1.48-2-4.1-4.43,7.73-10.35,2-16.6,1.76,1.8,2.83,3,4.59,5.46,5-1.12,3.43-5.3,3.48-6.13,2.28C674,81.05,665.69,82.52,663,76.05h6.86c-.07-2-1-2.5-2.22-2.72-.27-2.29-1.86-2.51-3.72-2.47-4,.08-7.92.07-11.87.1a2.47,2.47,0,0,1,2.63-2.82c2.58-.87,6.41,2.25,7.78-2.45a10,10,0,0,1,2.56-.24h5.27l-2.45-4.93c2.67-.52,2.51-3.21,3.3-4.57,3-2,4.34.44,7.76,2,1.81.74,3.21-5,7.17-3.09,3.46,4.59,11.31,3.95,13.47,10.7-1.48.14-2.92,1.33-2.4,2.35,1.43,2.85,1.47,6.7,5.15,8.15Z"/><path class="cls-16" d="M710.14,89.17a9.94,9.94,0,0,0-.15-2.31c1.2-.12,2-.66,2.4-2.4l-4.49-.37-.34-2.63c2.12-.21,4.89.85,5.3-2.71a2.9,2.9,0,0,0,3-2.69c2.07,0,4.52.67,5-2.53.11-1,.22-1.91.32-2.87l5.43-2.58a42.09,42.09,0,0,1,13.83,5.64c1.73,1.15,1.55,3,1.74,4.7,0,1.92-.55,4,1.59,5.42l3.45.2q.2,3.9.4,7.82c-5.46,1.51.65,3.42-.18,5.09l-7.61.45c-3.58,1-8.24-2.84-10.91,2.39h-8.93c-2.9-1.1,3.25-5-1.8-5.33-.09-1.64.47-3.46-1.27-4.63C714.45,91.16,711.86,94.68,710.14,89.17Z"/><path class="cls-18" d="M455.75,70.76l.15,2.75C456.34,77,459,76,461.09,76.1a2.61,2.61,0,0,0,2.75,2.67l-2.26,4.28c1.85,2.19,3.81,4.34,7.22,3.63l.38,2.66c-2.42,2.06-6.43,1.7-7.93,5.18-2.1.38-4.88-.54-5.42,2.83-4.1,0-8.2,0-12.3-.12-1.91-.06-3.06.64-3.45,2.52-4.11,1.38-6.72-3.36-10.67-2.61.71-3.46,6.52-6.89.07-10.4-.74-2.95.86-4.95,2.72-6.89,4.54-4.7,9-9.44,13.4-14l4.95,2.27C451,71.56,453.6,70.7,455.75,70.76Z"/><path class="cls-19" d="M426.91,97.42c1.65,2.76,1.72,6.52,5.19,8.12l-2.1,4,2.23,1.12c-6.56,6.21-15.91,3.88-24.44,7.59-3.66-4.13-10.8-.72-15.53-5.14l.09.11c.94-1.82,1.87-3.65,2.81-5.48,3.49-2.1,3.5-2.91,0-5.06,1.43-2.86,1.52-6.53,5-8.17.15,1.22.63,2.1,2.69,1.9V91.78c.94-3.46,4.25-4.87,6.3-7.36l4.19,2,.26,3.3a15.32,15.32,0,0,0,10.52,5C424.2,96.55,425.29,97.26,426.91,97.42Z"/><path class="cls-20" d="M765.82,86.86l4.49-2.22c1.34,6.75,7.92,9.73,11.2,15.42-3.47,2.32-3.43,3.18.29,5.19l2,1.33c-2.81,2.52.13,4.35.77,6.45-1.49.25-2.67.82-2.7,2.58-4.19.79-8.89-.82-12.55,2.82-7.91-3.83-17.75-1.36-24.91-7.7,1.55-.69,4,.9,4.82-1.89-1.45-1.36-4.38-.55-4.64-3.37a17.86,17.86,0,0,0,7.89-7.75l.1-3A13.38,13.38,0,0,1,763.32,92C766.62,91.49,765.72,88.93,765.82,86.86Z"/><path class="cls-16" d="M448.15,158.32c2.61-11,12.32-14.23,20.77-18.83.42,3.33,2.86,2.88,5.12,2.76l-2.23,5.38c.38,3.26,2.82,2.58,4.91,2.56a3.16,3.16,0,0,0,3,2.88l-2.29,4.87,5.14.26c.6.41,1.2.82,1.81,1.22-2.68,2.55.23,4.53.67,6.77-3.3,0-6.61,0-9.92-.06a3,3,0,0,0-3.34,2.73,14.92,14.92,0,0,0,0,2.59l-5.43-2.61c-2.28,2.19-6.25,1.6-7.76,5-1.73.25-2.55-.62-2.78-2.23C455.26,166,450.24,163,448.15,158.32Z"/><path class="cls-8" d="M691.86,166.22c1.81-3.23,3.11-6.57,2.19-10.38,1.66-.24,2.86-1,2.93-2.83,5.47.2,6.69-5.37,10.36-7.62a3.39,3.39,0,0,1,3.29-3.26l6.67.57c3.36,5.36,11.36,7.41,11.24,15.59-1.69.13-3.56-.34-4.55,1.38-1.91,2.57,1.92,3.55,1.44,5.53-1.28,2.5-4.52,3.33-4.53,6.46l.06-.09-15.85,0c-.06-.91-.13-1.81-.19-2.71a2.94,2.94,0,0,0-3.28-2.71C698.38,166.2,695.12,166.2,691.86,166.22Z"/><path class="cls-6" d="M506.25,134.38c2.84-.4,4.76-3.72,8.18-2.47,4.43,3.23,6.24,9.91,13,10.4.35,3.89-5.51,1.49-5.3,5.24-1.92.48-4.61-.62-5.25,2.54,0,2,1.23,2.88,3,3.28-.15.75-.29,1.49-.43,2.24-2.06.18-4.75-.91-5.2,2.55-3,.12-2.5,3.32-3.48,5.46l-1.92-2.46c-3.17-3.81-6.55-3.95-10.53-.44-3.29-.22-4.4-3.63-8-5.21h-5.27c.79-4,6.4-2.26,7.78-8.78v-7.41a7.63,7.63,0,0,1,5.45-4.91c.2,1.59-.5,3.36,1,4.7,2-2.29,4.69.19,7-1.09Z"/><path class="cls-21" d="M686.2,688.18c-24.32,5.25-48.69,9.88-73.64,7.25-.42-4,1.4-4.69,3.87-4.7,6.59,0,13.19-.08,19.78-.08,2.2,0,4.45.26,5.27-2.53h2.25c.71,3.14,3.13,2.49,5.3,2.41,3.93,0,2.67-3,2.88-5.09,3.79-4.58,1.38-11.3,5.44-15.79,2.46.23,3.41,2.32,4.81,3.71.44,5.14-4.14,8.22-4.85,13.77,8.32.18,15.68-4.17,23.63-4.51,3.39,1.36,5.29-1.93,8-2.56l4.21,2.29c2.83-1.82,4.49-6,9.07-4.84,2.49,2,6.56,1.64,8,5.28l-.08.09c-7.14.09-13.83,2.55-20.69,4.06-.23.05-.31.77-.45,1.18Z"/><path class="cls-22" d="M477,693.38l-2.72-.28c-.05-1.7-1.16-2.27-2.63-2.46,4-5.63,10.69-.1,16.23-4.37-7.88-.1-14-4.61-21.29-3.42l-2.88-.09c-7.91-7.57-18.86-8.68-28.21-13.18-4.92-2.36-10.17-4.05-14.27-7.88,1.63-.13,2.71-.85,2.81-2.62l2.72-.08-.08-.08a2.52,2.52,0,0,0,2.69,2.67c2.61,4.7,8.6,1.62,10.86,5.56,2.85-1.51,4.44-4.67,7.12-1.68l-1.56,3.18c2.66,1.63,4.13.91,4.78-1.8l2.62.1c.24,1.86-.61,4.23,2,5,2,.6,2.91-.57,3.3-2.36,5.35,1.82,9.76,6.54,16.12,5.25l4.83,0c4.14-1.43,6.63,3.77,10.69,2.66,1.46,4,4.45,5.58,8.61,5.24,2.09-.17,4.13-.12,4.84,2.47q-1.32,2.61-2.66,5.22c-2.9-.39-5.26-3.86-8.88-.75-1.54,1.33-4.67.81-7.07,1.13C482.27,691.4,478.51,688.75,477,693.38Z"/><path class="cls-23" d="M662.37,136.65c.12-1.26.23-2.52.33-3.65,3.52-3.76,5.74,3,9.19.81,1.62-1.48-1.5-2.43-.3-4.5,3.64-.65,5.48,1.91,7,5l-2.16,1.12a4.36,4.36,0,0,0,3.71,3.61l1.1-2.21c3.63,0,5.57,1.52,5.17,5.36,0,4.55-.91,9.28,2.63,13.12l-5.38,2.86c-.34-2.08-1.6-2.77-3.58-2.36l-12.25,1.45V161c-.12,1.25-.69,1.93-2.42,1.56-.08-1.4-.17-2.91-.25-4.42-1.31-4.8-5.23-1.72-7.84-2.6-1.62-.16-2.64-.87-2.42-2.69,2.2,0,4.88.77,4.89-2.91,0-.69,0-1.39,0-2.08C658.86,143.74,663.77,140.92,662.37,136.65Z"/><path class="cls-24" d="M424.08,659.08c-.1,1.77-1.18,2.49-2.81,2.62-5.82-2.74-12.51-3.51-17.41-8.45-3.5-3.55-7.72-3.2-11.89-.5-4.67,3-9.65,5.6-14.18,8.82-4.22,3-8.8,4.11-14.13,5.42,3.24-10.57,6.09-12.32,31.13-19.86-12.76-6.94-23.37-16.31-34.74-24.62-2-1.48-3.36-3.88-5-5.86,1.61-.11,2.67-.82,2.81-2.55,7.9,5.24,13.66,13.1,22,17.81,9.55,5.38,17.06,14.28,28.42,16.55l-.15-.12c2.56,5.85,7.87,7.12,13.38,8l-.13-.11C421.42,658,422.47,658.83,424.08,659.08Z"/><path class="cls-25" d="M257.52,460.2a366.52,366.52,0,0,1-8.72-49.36c-1.38-13-2.56-26-2-39,.51-12.52,1.94-25,3.08-37.5.05-.61,1.21-1.11,1.85-1.66.56,2-.9,5,2.59,5.65C251.17,357,252,375.72,252,394.44c0,12.15,3.08,23.88,4.5,35.8,1.07,9,4.51,17.71,3.63,26.94C259.85,458.72,259.38,460.05,257.52,460.2Z"/><path class="cls-26" d="M866.52,550.33c.27-1.42,1.18-2.59,2.5-2.57,6.26.11,9.4-4.63,13.3-8.21.15,1.62.85,2.72,2.63,2.81,1,1.83,2,3.66,2.88,5.26-1.33,7.48-11,3.21-12.93,10.25,17.59,1.58,36.36-3,53.51,10.08-8.66,1.48-15.5,2.31-22.11-1.6a3.05,3.05,0,0,0-3.45-2.83c-5.13.12-10.26.16-15.39.22H871.4c-2.78.44-1.49,5.08-4.86,5.17a2.53,2.53,0,0,0-2.75-2.65c-.61-1.52-1.23-3-1.83-4.56,2.3-1.72,6.84.9,7.27-4a3.33,3.33,0,0,0-2.77-2.34l2.11-4Z"/><path class="cls-27" d="M771.38,622c10.62-23,19.84-46.74,31.54-69.3.63-1.21,1.3-2.17,2.72-2.36h5.22c-1.23,9.61-7.15,17.36-10.88,25.9-7.33,16.79-14.28,34-26,48.54C773.75,623.24,773.17,622.05,771.38,622Z"/><path class="cls-28" d="M840,465.53a277.38,277.38,0,0,1,8.28,53c-.06,4.14-.07,8.3-.19,12.44-.06,1.92.66,3.1,2.56,3.51-1.4,3-3.38,5.76-2.53,9.35s-1.34,6.32-2.9,9.2c-.73,0-1.46,0-2.19,0,4.56-11.93-2.09-23.65-.66-35.51-4.84-5.79.24-14-4.87-19.75.82-10.88-4.84-21.23-2.6-32.21Z"/><path class="cls-29" d="M424.22,187.12,419,185l-.29-3.29-2.63-4.88c3.49-3.83,1.23-11.15,7.95-13.45a6,6,0,0,0,4.58,4.82c1.29-2.72,6.06-.92,6.28-4.94,5.22-2.11,4,5,7.62,5.28l.25,3.24c0,.77-.05,1.53-.09,2.3.12,1.63.25,3.25.39,5.09l4.92-2.39a11.65,11.65,0,0,1,.08,2.36c-2.11,4.05-5.85,5.28-10,5.48-2,.1-3,.94-3.34,2.82-1.75,3.75-3.53,3.75-5.33,0S426.56,183.66,424.22,187.12Z"/><path class="cls-30" d="M863.69,309.53c.22-1.63.88-2.83,2.74-2.89,9.31,21.65,17.17,43.71,19.18,67.45,0,.54,1.24,1,1.9,1.47l.36,23.51c-.15,8.67-.3,17.34-.46,26.62-3.12-1.77-2-3.74-2.4-5.29a279,279,0,0,0-20.71-107A16.91,16.91,0,0,1,863.69,309.53Z"/><path class="cls-31" d="M869,598.4c2.91,1.43,6.58,1.46,8.54,4.62l-2.7,1.4,2.3,4.08-2.41,2c14.79,2.6,24.37,11.24,31.22,23.85-5.76,2.72-8.28-1-10.79-3.77-8.71-9.73-20.52-13.87-32.16-18.41-3.44-1.33-6.94-.74-10.39-.84-3-.08-5-1.07-6.91-4.44,7.74-1.76,14.92-.68,23.27,3.46-3.24-7.94-10.69-4.7-13.38-9.43,3.28,0,6.56-.19,9.84-.11C867.3,600.8,868.57,600.32,869,598.4Z"/><path class="cls-14" d="M302.23,563.58c-12.57.4-24.83,3-37.19,5-.37-1.91-1.59-2.59-3.43-2.37-2.17.27-4,0-4.44-2.65a32.39,32.39,0,0,1,21.29-5.08c3.6,3.31,6.83,3.32,10.46,0l13-.59c-1.76-7.14-11.64-2.69-12.81-10.35l2.82-5.27c3.28-.6,2.08-3.22,2.35-5.18a22.76,22.76,0,0,0,13.48,10.54,3.31,3.31,0,0,1,2.54,2.61l-2.14,1.05c.69,1.35,1.37,2.71,2,4.06a3,3,0,0,0-2.85,3A7.06,7.06,0,0,0,302.23,563.58Z"/><path class="cls-32" d="M310.18,309.25l2.83.15c-.21,2.16.13,4.58-.73,6.44-8.1,17.69-12.15,36.43-15.51,55.47-2.86,16.24-4.06,32.56-5,49-.45,2.07.88,5-2.71,5.54,0-12.25-1-24.59.21-36.71a214.33,214.33,0,0,1,7.1-38.88C300.42,336.35,303.31,322.15,310.18,309.25Z"/><path class="cls-7" d="M654.66,68.14A2.47,2.47,0,0,0,652,71v-.09c-6.75,0-13.51,0-20.27-.13-2,0-3.16.59-3.6,2.53-2.23.13-4.77,1-5.41-2.44,0-.9,0-1.8,0-2.7-1.88-3.61-7.51-4.31-6.64-10.16,2.08-1.91,6.08.94,9.07-1.59l-4.32-2.67c.55-.46,1-1.16,1.65-1.33,4.13-1.09,7,3.13,11,2.71,2,3.5,2.89,3.52,5.07.1a2.17,2.17,0,0,1,2.82,2.06c.13,1.74.69,3.13,2.79,3A2.27,2.27,0,0,0,646.45,58c4,1,6.25,3.9,8.19,7.2Z"/><path class="cls-33" d="M394.51,608.8c-10.46-14.38-16.47-31-23.44-47.08-1.66-3.84-3.27-7.7-4.9-11.54,1.82,0,2.34-1.31,2.61-2.8,9.07,7.92,13,19.06,18,29.44S395.65,598,400,608.64Z"/><path class="cls-34" d="M843,553c.73,0,1.46,0,2.19,0a9.07,9.07,0,0,1,.17,2.6c.16,2.12-.94,4.86,2.62,5.31l.13.16c-1.34,7.4-7.22,12.14-11.11,18.81v9.74l-5-2.44c-.16-1.95.82-4.44-2.35-5,2.87-5.69,3.57-11.14.39-17.27-2.31-4.44-2.69-9.85-4.66-14.52-1.47-3.49-1.75-6.57-.42-10,8.14,3.37,11.28,10,13.28,27.78C842.79,564,842.69,558.46,843,553Z"/><path class="cls-35" d="M522.13,147.55c-.21-3.75,5.65-1.35,5.3-5.24,5.54-3.09,9.18-9.19,16.05-10.18,1.87,3.62,3.56,3.52,5.08-.24l5.17,1.84c1.33.1-.2-6.16,4.32-4.16,1.67,2-2.32,3-1.46,4.89.47,3.54,3.33,2.35,5.39,2.72.81,3.17-2.06,5-2.73,7.67,0,1,0,2,0,3.06-.84,3.11-3.25,2.32-5.4,2.18-.08-1.25-.16-2.5-.36-5.6-4.56,5.1-9.61,2.76-14.42,3-2,.11-3.22.58-3.66,2.57C531.32,147.57,526.8,147.2,522.13,147.55Z"/><path class="cls-36" d="M720.69,656.16c9.41-10.39,17.29-21.79,22.78-34.73a30,30,0,0,0,1.17-4.86c3.62-.47,2.47-3.22,2.58-5.37.21-1.51.42-3,.68-4.84l4.81-.67c2.23,8.46-2.36,22.81-7.9,30.52-1.57,2.17-3.3,4.06-2.89,7l.12-.1c-3.81,1.42-6.22,4.26-7.91,7.82l-.07,2.78c-4.17-.74-7,2.27-10.23,3.91C721.42,658.81,721.15,657.94,720.69,656.16Z"/><path class="cls-37" d="M885,420.4c.42,1.55-.72,3.52,2.4,5.29.16-9.28.31-17.95.46-26.62,2.58,1,2.44,3.08,2.41,5.3-.07,7.8,0,15.59,0,23.52,4.36,9,8.75,18.07,13.14,27.14-3.44.57-2.15,3.34-2.49,5.35-3.56-.92-3.5-4.68-4.79-7-2.12-3.86-4.1-7.31-8.36-8.94-.65-2.71,1-4.76,1.77-6.37l-2.75-4.73L885,436.54c-4.52-6.16-9.11-12.3-11.72-21.62Z"/><path class="cls-38" d="M686.2,688.18l2.82-.07c5.87.58,11.69.71,17.65,1.83,9.67,1.81,18,6.71,27.37,8.85,1.21,3.84,3.82,5.57,7.83,5.22,2.57,3.93,5.37,7.73,7.63,11.83,1.22,2.21,1.25,4.85-1.87,7.34a71.86,71.86,0,0,0-30.7-24.62c-9-3.84-17.88-8.15-28.07-8C688,690.62,687.09,689,686.2,688.18Z"/><path class="cls-39" d="M257.52,460.2c1.86-.15,2.33-1.48,2.56-3h4.42c1.39-8.59-1.24-18.22,5.37-25.76,3.15-.25,3.13,1.92,3.49,4.19,1.23,7.61-2.69,14.43-3.09,21.77-8.69,10.74-4.7,20.34,2.65,29.64l0,5.05c-1.89.19-2.49,1.5-2.73,3.12-3.29-.52-1.32-5.64-5-5.77a25,25,0,0,0-5-15.95C260,468.9,259.7,464.37,257.52,460.2Z"/><path class="cls-40" d="M702.26,677.5v-2.65c8.26.5,14.4-4.65,21.22-8l0,0c2.1-.25,4.85.79,5.32-2.68,3,1.4,5-3,7.77-1.41,4.61,2.6,1.81-5.36,5.63-3.82a6.44,6.44,0,0,0,2.5-.07h0l-2.07,4.18,2.07,1.1.13,3c-6.48,5.68-15.14,6.56-22.57,10.18-3.22,1.57-7.31,1.48-9.22,5.3l-2.76,0C708.82,679.14,704.75,679.51,702.26,677.5Z"/><path class="cls-41" d="M437.34,645.71c.64-3-1.4-4.74-2.85-6.93-7.46-11.35-12.47-23.4-9.75-38.3,6.89,6.4,6.35,15.23,10.05,22.11S441.94,636.2,445.5,643a7.13,7.13,0,0,0-5.57,5.33A2.45,2.45,0,0,1,437.34,645.71Z"/><path class="cls-42" d="M617.47,145l1.85-1.52c-2.49-1.44-5.17-2.74-4.47-6.39,2.11-.21,4.86.86,5.27-2.68,1.51-.21,2.54-.88,2.47-2.59l2.91-.12-.07.12c1,1.35,2.05,4,2.86,3.87,8.28-.86,12.11,6.78,18.54,9.31h7.75a2.51,2.51,0,0,1,2.66,2.69c-5.47-.15-11-.84-16,2.49-1-5.54-7.86.18-9.15-5.11-1.48,5.05-8-.28-9.24,4.94l-5.39-2.3C617.5,146.81,617.49,145.91,617.47,145Z"/><path class="cls-43" d="M252.1,478.87c-.45,1.18-1,2.46-2.54,1.47a61.62,61.62,0,0,0-40.51-9.44c-1.7.19-3.47.16-4.55-1.75-.71-3.26,2.09-4.27,4.59-6.33h19c.45,1.89,1.71,2.29,3.54,2.81C239.72,468,246.88,472,252.1,478.87Z"/><path class="cls-44" d="M779,659.32c13.27,3.39,24,10.8,33.22,20.72,3.26,3.5,5.61,7.27,6.38,11.51-1.19,2-3,2.21-3.7,1.49-11.06-11.43-23.49-21.26-35.88-31.15A15.75,15.75,0,0,0,779,659.32Z"/><path class="cls-45" d="M503.65,743.75c-.47-10.56,7.08-17,12.63-24.47,4.13-5.53,10.51-9.06,13.88-15.32l-.11.14c3,.48,3,2.62,2.55,6-9,8.74-15.47,20.32-21.59,32.18-1,1.84-2.29,3.78-4.81,4A2.41,2.41,0,0,0,503.65,743.75Z"/><path class="cls-45" d="M938,468.19c9.41-5,19.44-6.42,30.26-4.92,1.82,1.21,4,2.6,4.58,6.34-8.6,2.93-17.51-.63-25.54,2-7.48,2.43-14.57,6-21.76,9.08-2.29-3.6,2.15-4.56,2.16-7.08C932,473.36,935.6,471.94,938,468.19Z"/><path class="cls-46" d="M832.08,608.62c-12.15,11.34-24.08,23-38.51,31.46-3.79,2.22-7.23,4.21-9.13,8.25l-.18.14-10.34,0-.19-.14.17-2.63-.16.15c4.66.26,8.07-2.57,11.37-5.09,13.92-10.6,27.65-21.44,41.45-32.19Z"/><path class="cls-47" d="M427,717.34c1.6-2.78,1.61-6.51,4.94-8.25,5.75-2.8,9.36-8.87,15.92-10.43,2.15-.15,4.92,1,5.37-2.64,3.67-3.7,8.42-4.56,13.31-5.06.1,1.82,1.33,2.42,2.89,2.64C455.3,700,443.2,709.29,432,719.9Z"/><path class="cls-48" d="M394.7,624.59a37.83,37.83,0,0,0,11.85,15.15c4.18,3.35,11.11,0,14,4.7a36.28,36.28,0,0,0,11.48,11.92c0,.91,0,1.83-.05,2.74l-5.29-.18.08.08c-.53-3.46-3.24-2.58-5.43-2.72l.13.11c-2.65-5.68-7.76-7.29-13.38-8l.15.12c-4.66-9-15.45-11-21.32-18.63C392.34,632.22,391.14,624.89,394.7,624.59Z"/><path class="cls-49" d="M289.07,425.81c3.59-.53,2.26-3.47,2.71-5.54,4.64,1.86,6-3.88,9.69-4.25,3,4.85-1.3,8-2.83,11.6-2,4.61-5.08,8.75-4.53,14.14l-5.06,2.6-5.23,2.9c-.34-3.38-2.85-2.85-5.08-2.82C280.57,437.34,286.61,432.57,289.07,425.81Z"/><path class="cls-50" d="M519.41,688.07c0-1.73-.07-3.46-.11-5.19l2.81-.08h2.39c1.33,3.44,4.24,5.52,7.07,7.44,1.45,1,3.34.3,3.64-2l2.69-.06c3.72,2.7,8,2.57,12.29,2.61,5.52,0,11.15-.66,16.49.87,0,1.82.52,3.79-1,3.87-14.58.74-29.22,2.37-43.53-2.23C522,691.12,522.88,688.47,519.41,688.07Z"/><path class="cls-51" d="M432,659.1c0-.91,0-1.83.05-2.74l2.75,0c5.29-2.2,8.48,2.94,13.74,3.11l-8.62-11.1A7.13,7.13,0,0,1,445.5,643a3.12,3.12,0,0,1,2.6,3.46c-.19,3.75,1.88,5.9,5.13,7.2-.67,2.71,1.17,4.73,2,7.26-1.67.93-4.57.39-4.67,3.39,0,.85,0,1.69,0,2.53-.65,2.71-2.12,3.43-4.78,1.8l1.56-3.18c-2.68-3-4.27.17-7.12,1.68-2.26-3.94-8.25-.86-10.86-5.56A2.39,2.39,0,0,0,432,659.1Z"/><path class="cls-52" d="M655.05,714.47c10.81,6.88,15.5,18.09,20.61,29,.09,2.7-2.06,3.69-4.11,5.48l-22.06-34.36Z"/><path class="cls-53" d="M885,436.54l1.76-3.23,2.75,4.73c-.82,1.61-2.42,3.66-1.77,6.37-.08,13.36-3.14,26.33-6.62,39-1,3.74,1.26,9.14-3.81,11.65-.2-1.62-.81-2.88-2.67-3,3.17-15.11,7.9-30,7.74-45.62C882.36,442.74,886,440.3,885,436.54Z"/><path class="cls-54" d="M874.65,492.08c1.86.13,2.47,1.39,2.67,3a125.73,125.73,0,0,1-16,42.21c-.2-1.06-.27-2.39-1.77-2.14-.43.07-.67,1.27-1,2l-2.69,0q.06-8,.13-15.94l-.11.11c2.69-.72,4.82.79,7.06,1.81C868.47,513.33,871.32,502.62,874.65,492.08Z"/><path class="cls-55" d="M885,542.36c-1.78-.09-2.48-1.19-2.63-2.81,4-7.95,8.1-15.89,12.12-23.84,3.85-7.62,7.51-15.33,9.7-23.63l4.77,0c-3.13,14.78-11.19,27.37-18,40.5C889.12,535.94,886.94,539.1,885,542.36Z"/><path class="cls-56" d="M289.05,444.36l5.06-2.6c.36,15,3.9,29.36,7.69,43.72.54,2,.35,4.28.5,6.43-.31,2.06.91,4.83-2.53,5.43C295,479.92,290.43,462.47,289.05,444.36Z"/><path class="cls-57" d="M313,611.74c-5.18,4.7-11.93,5.64-18.24,7.64-2.26-.41-5.38.81-5.84-3,3-4.54,8.45-4.38,13.21-6.23l-5-2.8c.47-6.81,5.36-6.85,10.2-7,.41,3.64,3.19,2.94,5.54,3,.4,3.53-4.49,1.38-4.66,4.31,1.29,1.59,3.16.73,4.71,1.17Z"/><path class="cls-58" d="M270.16,495.19c.24-1.62.84-2.93,2.73-3.12,5.61,15.74,13.76,30.27,21.39,45.05-.27,2,.93,4.58-2.35,5.18-6.7-13.24-13.29-26.53-20.19-39.67C270.44,500.15,270.53,497.7,270.16,495.19Z"/><path class="cls-59" d="M522.19,666.84l-.13-10.48c1.29-3.78,3.77-5.78,7.91-5.27-.38,10.94.95,21.61,5.17,31.8-1.72.08-2.37,1.13-2.49,2.69-3.5-1.52-3.27-5.59-5.48-8C524.36,674.53,526.46,669.21,522.19,666.84Z"/><path class="cls-60" d="M463.75,682.76l2.88.09c-5.05,5.6-12.77,6.59-18.61,10.83-4.21,1.37-6.89,5.72-12,5.73-1.57,0-3.62,2-4,4.38-1.45,0-2.41-.64-2.57-3C436.89,688.11,449.69,684.3,463.75,682.76Z"/><path class="cls-61" d="M784.44,648.33c10.58,2.07,20.83,4.9,29,12.71.09,1.94.88,4.23-2.3,6-9.27-4-18.12-9.7-26.91-15.58v-3Z"/><path class="cls-62" d="M744.67,659a6.44,6.44,0,0,1-2.5.07c-3.82-1.54-1,6.42-5.63,3.82-2.82-1.59-4.82,2.81-7.77,1.41-2.11.22-4.89-.88-5.32,2.68l0,0-8-.09,2.07-4.23-2.19-1.1a8.8,8.8,0,0,1,5.36-5.32c.46,1.78.73,2.65,3.14,1.42,3.21-1.64,6.06-4.65,10.23-3.91.53,2.48,2,3.33,4.22,2.09,1.34-.74,2.31-2.2,4.13-1.84-.23,1.73.88,2.24,2.27,2.5C744.67,657.27,744.66,658.11,744.67,659Z"/><path class="cls-63" d="M911.6,465.57C908.29,456,903,447,903.79,436.36l5.52,0c2.61.73,2.32,2.82,2.37,4.85,0,2.28-.89,5.05,2.44,6,1,4.26-2.06,9.29,2.43,12.89l2.86.14c.1,2.26.72,4.73-2.34,5.69-.47-.94-1-1.87-1.32-2.62Z"/><path class="cls-64" d="M394.7,624.59c-3.56.3-2.36,7.63-7.75,5.24A16.46,16.46,0,0,1,379,622c0-1.77,0-3.55,0-5.33-.06-2.66-.11-5.32-.17-8l4.34,2c.39-.71.77-1.43,1.16-2.15C389,613.13,391.07,619.37,394.7,624.59Z"/><path class="cls-65" d="M321.12,153c2,.16,2.79,1.91,4.48,3.54-1.6,2.14-3.28,4.36-4.43,5.89-2,5.63,3.06,7.28,4.4,10.61-.63,1.08-1.83,1.85-1,3.3,3.91.85,7.44.76,11.07-1.79,1.62-1.13,5.17-1.83,6.28,1.95-4.87,4.1-10.66,3-16.34,2.88l-7.13,5.46L315,184.5c-.16-3.93,3.06-5.91,5.11-8.84C315.37,168,318.78,160.54,321.12,153Z"/><path class="cls-66" d="M882.67,213.56c-.24,1.54-.79,2.8-2.63,2.9-7.9-11.43-14.27-23.92-24-34.09-.47-.49-.22-1.66-.31-2.51l.15-3a23.2,23.2,0,0,1,2.36,0c7.88,11,15.79,22,23.58,33C882.53,210.8,882.42,212.31,882.67,213.56Z"/><path class="cls-67" d="M858.25,579.39c.18,2.11.35,4.21.5,6.07-5.76,7.94-13.59,12.87-21.36,17.87a2.62,2.62,0,0,0-2.82-2.72,7.72,7.72,0,0,0,.27-2.53c8.49-5.64,14.42-13.81,21-21.28C856,578.28,856.62,579.3,858.25,579.39Z"/><path class="cls-68" d="M855.62,518.5l.26,2.75.11-.11c-4.94.33-.66,6.33-4.56,7.43-2-3.23-.23-6.83-1.17-10.09.56-8.22-.28-16.75,5.27-23.88l5.43,0a23.62,23.62,0,0,1-4.83,18.68C852.27,515.12,852.18,516,855.62,518.5Z"/><path class="cls-69" d="M252.07,325.18c2.4-13.59,3.26-27.58,10.28-40,.22,1.44.69,2.65,2.43,2.73q-4.44,19.8-8.93,39.57c-.07.3-.72.46-1.09.69C254.54,326.58,254,325.3,252.07,325.18Z"/><path class="cls-70" d="M723.47,685.37c9,.1,16.12,4.56,22.16,10.66,2.34,2.35,4,5.9-1,8L734,696.2c-4.18-3.1-9.86-3.72-13.31-8A2.65,2.65,0,0,0,723.47,685.37Z"/><path class="cls-71" d="M299.77,497.34c3.44-.6,2.22-3.37,2.53-5.43.85.86,2.42,1.7,2.44,2.57.15,9.16,4.94,16.73,8.3,25,2.15,2.63,7.26,2.31,7.83,7H310.33C306.72,516.8,301.33,507.77,299.77,497.34Z"/><path class="cls-32" d="M379.08,616.66c0,1.78,0,3.56,0,5.33-12.28-9.92-23.35-21-31.86-34.38.12-1.61.82-2.69,2.58-2.78C359.61,595.37,367.15,608,379.08,616.66Z"/><path class="cls-72" d="M381.66,674.83c-1.48,3.48-5.18,4.86-7.28,8.06-2.39,3.67-5.33,8.13-10.9,8.28q-.23-3.06-.44-6.12c1.49-7.72,7.64-11.32,13.46-15.21A6.94,6.94,0,0,0,381.66,674.83Z"/><path class="cls-73" d="M331.07,277.4c-2.2,0-4.89.73-4.92-2.94,8.25-9.25,14.11-20.21,21.49-30.08,1.29-1.73,2.51-3.64,4.88-4.15,0,1.85.07,3.69.11,5.53C345.05,256,337.29,266.2,331.07,277.4Z"/><path class="cls-74" d="M519.58,704.46c-5.77,6.7-11.48,13.47-18.51,18.2-3.54-1.67-2.78-4-2.75-6,5.33-7.49,11.92-13.17,21.3-14.87C519.61,702.65,519.59,703.56,519.58,704.46Z"/><path class="cls-75" d="M657.05,701.75c3.49-.39,4.49,3.42,6.87,4.58l2.55-1.88a65.82,65.82,0,0,1,11.9,11.8c.19,2.25.71,4.46-2.21,6.5-7.5-4.59-13.14-11.61-19-18.32C657.1,703.53,657.07,702.64,657.05,701.75Z"/><path class="cls-76" d="M251.69,467.89c-7.27,1.53-11.93-3.11-16.9-7.1-1.53.89-3.3,3.33-4.3-.56l-2.35-5.42c1.42-3.82,4.45-3,6.52-2A39.4,39.4,0,0,1,251.69,467.89Z"/><path class="cls-77" d="M288.88,616.33c.46,3.86,3.58,2.64,5.84,3l-19,16.22c-3.64-1.89-2.45-4.27-2.55-6.7C278,624.45,281,617.49,288.88,616.33Z"/><path class="cls-78" d="M848.53,274.66l-3.18.16c-6.8-9.38-12.18-19.81-20.73-27.92-.78-.74-.64-2.46-.93-3.73l3.33-.3C835.83,252.35,844.1,262.21,848.53,274.66Z"/><path class="cls-79" d="M302.23,563.58a7.06,7.06,0,0,1,5.13-5.24l10.56,5.29c.44,2.35-3.13,3.13-2.22,5.67l7.83,10.15c-5.08,1.26-1.87,5.37-2.77,8.08-2.49-4.25-2.49-4.25-2.86-8.82-2.25-4.09-6.81-6.33-8.39-11.13C308.53,564.63,305.64,563.14,302.23,563.58Z"/><path class="cls-80" d="M903.78,253.55l-3.14.2c-2.35-.59-3.81-2.66-6.64-2.94-3.36-.33-7.27-1.2-9-5.06,5-1.51,8.89,3,12.91,2.91,8.29-3.63,6.4-11.08,8.14-16.92l-5.94-6.17c4.07-.26,5.89,2.54,8.58,1.6v14.55C908.13,244.79,903.06,248.08,903.78,253.55Z"/><path class="cls-81" d="M924.8,470.9c3.46-8.93,9.5-15.23,18.65-18.37L946.1,458c-1.85,4.88-7.19,5.05-10.58,7.84C931.27,466.08,929.93,472.47,924.8,470.9Z"/><path class="cls-82" d="M911.6,465.57l4.15-2.24c.37.75.85,1.68,1.32,2.62-.56,9.37-5.12,17.5-8.16,26.11l-4.77,0c3.14-5.65,1.63-12.11,2.74-18.2l3.82,1.78C912.3,472.37,911.18,468.9,911.6,465.57Z"/><path class="cls-83" d="M273.37,251l5.34,0c-4.06,10.84-7.9,21.77-13.3,32.06-.28-1.48-.74-2.81-2.59-2.89Z"/><path class="cls-84" d="M320.76,587.53c.9-2.71-2.31-6.82,2.77-8.08,6.75,3.32,8.79,10.67,13.46,15.77-1.57.13-2.73.73-2.89,2.49C328.51,595.82,323.39,593.31,320.76,587.53Z"/><path class="cls-85" d="M744.79,667.26l-.13-3c4.23-3,10-3.33,13.27-7.91a2.64,2.64,0,0,0,2.69-2.75l-.14.13c4.1.29,6.84-1.45,8.09-5.42l-.15.13,5.31-.14.19.14.06,3c-1.2,2.45-3.94,4.32-2.86,7.63l.16-.16a24.3,24.3,0,0,0-14.86,3.24C752.78,664.33,749.3,667,744.79,667.26Z"/><path class="cls-86" d="M394.51,608.8l5.5-.16c4.12,8,8.19,16,12.38,23.89.85,1.59,1.81,3-.33,5.73C405.07,628.77,398.22,619.8,394.51,608.8Z"/><path class="cls-87" d="M320.59,510.68a24.56,24.56,0,0,1-4.23-21.39c9.79,2,6.74,10.78,9.53,16.06C322.22,505.23,324.55,511.09,320.59,510.68Z"/><path class="cls-88" d="M434.88,163.29c-.22,4-5,2.22-6.28,4.94a6,6,0,0,1-4.58-4.82c1.39-4.57,5.11-5.38,9.45-5.55a16.16,16.16,0,0,1,8.15-9.66c1.24,1.44,1.37,3.14,1.1,5.37Z"/><path class="cls-89" d="M744.67,659c0-.85,0-1.69,0-2.54,3.49-1.19,5.44-4.19,7.79-6.68a21.76,21.76,0,0,1,15.88-7c.07,1,.13,2.06.2,3.1-.07.87-.11,1.73-.13,2.6l.15-.13q-6.09-.33-8.09,5.42l.14-.13c-2.13.24-4.86-.69-5.39,2.72-4-1-6.56,3.69-10.57,2.66Z"/><path class="cls-90" d="M439.93,648.34l8.62,11.1c-5.26-.17-8.45-5.31-13.74-3.11-1.19-4.37-8.76-6.64-4.31-12.83,3-1.45,4.31,2.26,6.84,2.21A2.45,2.45,0,0,0,439.93,648.34Z"/><path class="cls-91" d="M450.6,664.32c.1-3,3-2.46,4.67-3.39-.87-2.53-2.71-4.55-2-7.26,7,6.29,15.7,10.56,21.23,18.51h0c-4.67.34-7.83-3-11.69-4.72S455.19,663.29,450.6,664.32Z"/><path class="cls-92" d="M315.48,606c8.52.2,17.2-1.57,25.06,2.79l1.56-2.94a7.55,7.55,0,0,1,5.25,5.34l-24.08,0c-1.23-5-5.31-1.52-7.83-2.66A23,23,0,0,0,315.48,606Z"/><path class="cls-93" d="M654.58,145h-7.75c-6.43-2.53-10.26-10.17-18.54-9.31-.81.08-1.9-2.52-2.86-3.87,7.35-.91,13.8,1.12,18.69,6.65,3,3.35,6.45,4,10.46,3.95Q654.6,143.71,654.58,145Z"/><path class="cls-94" d="M519.41,688.07c3.47.4,2.6,3,2.71,5.2-7.37,1.54-13.88-3.48-21.14-2.77q1.33-2.61,2.66-5.22C509,685.53,514.57,684.78,519.41,688.07Z"/><path class="cls-95" d="M381.66,674.83a6.94,6.94,0,0,1-5.16-5c6.83-3.11,12.59-8.84,20.84-8.48l.52.57C393.43,667.44,386.91,670.34,381.66,674.83Z"/><path class="cls-82" d="M919.41,460.26l-2.86-.14q.21-6.44.4-12.89c3.36-1,2.15-3.9,2.57-6.18.47-2.6-1.38-6.05,2.56-7.47,1,2.64-2.18,6.54,2.42,8.1C923.06,447.94,922.52,454.45,919.41,460.26Z"/><path class="cls-96" d="M347.35,611.2a7.55,7.55,0,0,0-5.25-5.34,27.74,27.74,0,0,0-8-8.15c.16-1.76,1.32-2.36,2.89-2.49l20.86,18.88c-.14,1.73-1.2,2.44-2.81,2.55Z"/><path class="cls-97" d="M643.73,688.11h-2.25c2.66-10.44,6.5-20.67,5.54-31.73,2.13.54,2.35,2.08,2.33,4-.08,5.73,0,11.46,0,17.2C650.66,682.78,644.72,684.13,643.73,688.11Z"/><path class="cls-98" d="M313.31,190.38c-2.73,8.11-8.59,14.21-13.47,20.94l-3.25-.25c2.48-8.31,8.44-14.39,13.51-21Z"/><path class="cls-99" d="M468.8,86.68c-3.41.71-5.37-1.44-7.22-3.63l2.26-4.28c3.13-1.11,5.55-4.24,8.7-2.79,3.22-2.34.16-7,4.52-7.85.05.88.06,1.76,0,2.63L477,78.94C471.51,78.57,469.13,81.54,468.8,86.68Z"/><path class="cls-65" d="M336.53,134.41c-4.79.83-4.86,5.56-6.82,8.6-1.8,2.79-2.31,6.47-6.31,7.29,3.4-8.11,3.49-18,12-23.5C337.62,129.2,336.56,131.88,336.53,134.41Z"/><path class="cls-100" d="M492.83,139.32v7.41c-1.38,6.52-7,4.81-7.78,8.78-1.45.32-2.47,1-2.48,2.69l-5.14-.26,2.29-4.87,7-3.62C488.06,145.88,488,141.13,492.83,139.32Z"/><path class="cls-101" d="M813.67,118.33l-1.74,2.76c-2.25-6-2.06-13.06-8.84-15.81,0-1.66-.7-3.46,1.64-5.31C813.47,103.1,813.42,110.8,813.67,118.33Z"/><path class="cls-24" d="M434.71,187.47c.32-1.88,1.3-2.72,3.34-2.82,4.15-.2,7.89-1.43,10-5.48,3.3.83,7-1.11,10,1.31.21,1.36.61,3.37-.77,3.41C449.59,184.06,442.53,188.2,434.71,187.47Z"/><path class="cls-102" d="M906.5,221.77c-4.53-2-8-4.69-8.27-10.32-.13-2.69-2.2-4.55-4.84-5.49.28-4.46,3.37-2.56,6.53-2.47C900.41,210,905.64,215,906.5,221.77Z"/><path class="cls-103" d="M765.82,86.86c-.1,2.07.8,4.63-2.5,5.16-2.11-5.73-9.47-7.5-10.75-13.74,1.62-2.78,3.69-2.61,5.33-.88C760.73,80.38,763.2,83.69,765.82,86.86Z"/><path class="cls-104" d="M273.08,465.69c-.1-1.83-.21-3.67-.31-5.5-.22-3.12,2.18-5.21,3.12-7.86,3.35-.6,2.35-3.23,2.5-5.32a5.78,5.78,0,0,1,.35-2.57c2.23,0,4.74-.56,5.08,2.82C279.48,453,278.92,460.87,273.08,465.69Z"/><path class="cls-105" d="M652,669.69c-.75,2.67,1.9,6.49-2.65,7.88,0-5.74-.07-11.47,0-17.2,0-1.9-.2-3.44-2.33-4-.2-2.2-1.15-4.69,2.18-5.48a6.9,6.9,0,0,0,5.3,5.38l-.06,5.38C649.63,663.12,652.81,667,652,669.69Z"/><path class="cls-106" d="M720.9,171.66c0-3.13,3.25-4,4.53-6.46.48-2-3.35-3-1.44-5.53,1-1.72,2.86-1.25,4.55-1.38l.64,6.3c1.34,2,4.58,1.19,5,4-.06,1-.13,2.07-.19,3.11a8.47,8.47,0,0,1-6.57-2.54A8,8,0,0,1,720.9,171.66Z"/><path class="cls-107" d="M413.61,89.75l-.26-3.3c1.87-3.32,3-7.11,6.27-9.76,1.89-1.23,3.95-.49,7.13-.21C422.89,82.21,419.63,87.25,413.61,89.75Z"/><path class="cls-108" d="M355.16,137c2.83.19,2.6,2.84,3.5,4.41,3.67,3.22,9.73-2.63,12.45,3.52-6.12.8-12.77-1.82-18.31,2.81l-3.06-.17Z"/><path class="cls-109" d="M744.64,158.31c-.17,2.13.9,4.9-2.72,5.23-1-4.82-7.27-6-7.85-11.11,1.37-3.74,4-2.07,6.65-1.75C742,153.16,743.32,155.74,744.64,158.31Z"/><path class="cls-110" d="M312.85,603.34c-2.35-.08-5.13.62-5.54-3,5.69-5.06,12.05-1.23,19.94-2.42-4.79,3.3-7.66,5.74-11.69,5.68Z"/><path class="cls-111" d="M742.41,653.92c-1.82-.36-2.79,1.1-4.13,1.84-2.24,1.24-3.69.39-4.22-2.09l.07-2.78c5.62.42,8.07-2.38,7.91-7.82l-.12.1,2.79.31c.06,2-.65,4.38,2.46,4.82C746.75,651.16,744.93,652.84,742.41,653.92Z"/><path class="cls-112" d="M442.75,171.81l-.25-3.24c5.25-4.47,5.25-4.47,5.65-10.25,2.09,4.7,7.11,7.69,7.72,13.25L450.52,169C447.82,169.63,445.85,172.3,442.75,171.81Z"/><path class="cls-14" d="M323.45,529.14l-.29,8-4.25-.32c-1.07-3.19-1.79-7.21-6.5-7.46a2.42,2.42,0,0,1-2.08-2.83h10.54C321,528.09,321.73,529.1,323.45,529.14Z"/><path class="cls-113" d="M320.59,510.68c4,.41,1.63-5.45,5.3-5.33v20.71C323.52,520.92,320,516.4,320.59,510.68Z"/><path class="cls-114" d="M683.91,84.18c-2.41-.36-3.66-2.12-5.46-5,6.25.29,12.17,6,16.6-1.76,1.28,2.62,1.64,3.36,2,4.1C693.43,86.22,688.3,83.37,683.91,84.18Z"/><path class="cls-115" d="M771.25,627.54c-1.07,5.45-3,10.36-8.66,13.51,1.09-6.64,1.09-6.64,8.44-16.74C771.11,625.39,771.18,626.46,771.25,627.54Z"/><path class="cls-116" d="M689.06,155.27c-3.54-3.84-2.63-8.57-2.63-13.12,3.86.89,2.31,4.09,2.84,6.77L697,153c-.07,1.88-1.27,2.59-2.93,2.83Z"/><path class="cls-117" d="M787.2,184.72h-3.71c-2.85-2.57,3.1-4.23.42-6.65-1.2-1.75-3.1-1-4.71-1.31,0-1.63-.59-3.38,1-4.84,3.79-1.5,4.87,1.86,7,4.27Z"/><path class="cls-118" d="M874.4,222.09c.43,4-1.38,6.51-5.17,7.67-3-1-5.22-2.58-5.36-6.25C866.76,218.77,871.53,226.67,874.4,222.09Z"/><path class="cls-119" d="M628.16,73.27c.44-1.94,1.64-2.57,3.6-2.53,6.76.12,13.52.1,20.27.13a3.18,3.18,0,0,1-3.57,2.69C641.69,73.42,634.93,73.36,628.16,73.27Z"/><path class="cls-120" d="M858.25,579.39c-1.63-.09-2.25-1.11-2.36-2.59q4-5.26,7.9-10.54a2.53,2.53,0,0,1,2.75,2.65C865.23,573.56,860.11,575.19,858.25,579.39Z"/><path class="cls-100" d="M506.25,134.38V138c-2.32,1.28-5-1.2-7,1.09-1.46-1.34-.76-3.11-1-4.7C501.48,130.69,503.29,130.69,506.25,134.38Z"/><path class="cls-121" d="M834.57,600.61a2.62,2.62,0,0,1,2.82,2.72c-1,2.52-2.58,4.49-5.31,5.29l-5.52-.09C828.55,605.2,831,602.29,834.57,600.61Z"/><path class="cls-122" d="M797.85,611.34l-5.91-.23c.2-4.19,2.33-6.72,6.59-8.05C800.52,606.36,802,609.06,797.85,611.34Z"/><path class="cls-123" d="M458.65,173.8c1.51-3.36,5.48-2.77,7.76-5l5.43,2.61L475,173.8Z"/><path class="cls-124" d="M826.94,224.24l-1.14,2c-5-4.13-4.53-9.73-4.21-15.31C826.2,214.24,827,219.07,826.94,224.24Z"/><path class="cls-125" d="M667.85,161v-3.82l12.25-1.45c2-.41,3.24.28,3.58,2.36C679,162.06,673.27,160.82,667.85,161Z"/><path class="cls-126" d="M622.9,150c1.25-5.22,7.76.11,9.24-4.94,1.29,5.29,8.16-.43,9.15,5.11Z"/><path class="cls-127" d="M535.43,150.11c.44-2,1.69-2.46,3.66-2.57,4.81-.29,9.86,2.05,14.42-3,.2,3.1.28,4.35.36,5.6Z"/><path class="cls-128" d="M744.61,105.47c.26,2.82,3.19,2,4.64,3.37-.79,2.79-3.27,1.2-4.82,1.89-2.37-.28-4.94.53-7-1.25-.16-.8-.32-1.56-.5-2.39C738.87,103.79,742,105.73,744.61,105.47Z"/><path class="cls-129" d="M373.77,107.92c-3.34-1.07-5.27,2.3-8.18,2.6,0-4.53,2.63-7.56,4.89-10.73C375.72,101.75,373.19,105.31,373.77,107.92Z"/><path class="cls-130" d="M655.05,714.47l-5.56.1-9.31-11.35C648.26,705.3,651.59,710,655.05,714.47Z"/><path class="cls-131" d="M787.17,137.09c4.65,1,9.44,1.57,13.07,5.13H788.72C786.62,141.24,786.91,139.16,787.17,137.09Z"/><path class="cls-132" d="M819.13,203.19l-5.72-2.51c-1.89-.54-2.66-1.73-2.14-3.67,1.77-3,4.19-1.39,5.9-1.55C819.66,198.17,818.68,200.82,819.13,203.19Z"/><path class="cls-133" d="M365.56,200.59l-3.58.3c-2.14,1.16-.65,5.36-4.4,5,.33-4.48-.23-9.49,6-10.49C366.48,196.39,365.69,198.61,365.56,200.59Z"/><path class="cls-134" d="M654.58,145q0-1.29,0-2.58c3.82-.27,2.33-7.71,7.79-5.77,1.4,4.27-3.51,7.09-2.57,11.25a21.91,21.91,0,0,1-2.56-.21A2.51,2.51,0,0,0,654.58,145Z"/><path class="cls-135" d="M887.46,563.74c5.13-.06,10.26-.1,15.39-.22a3.05,3.05,0,0,1,3.45,2.83c-5,0-10-.13-15-.11A3.61,3.61,0,0,1,887.46,563.74Z"/><path class="cls-136" d="M257.17,563.57c.43,2.65,2.27,2.92,4.44,2.65,1.84-.22,3.06.46,3.43,2.37H252.81C250.91,563.47,254.28,563.75,257.17,563.57Z"/><path class="cls-137" d="M432.23,110.7,430,109.58l2.1-4c2.43-.15,4.91-.92,7.19.61.19.78.38,1.53.58,2.36C438.18,112.11,434.83,110.12,432.23,110.7Z"/><path class="cls-138" d="M924.5,441.68c-4.6-1.56-1.42-5.46-2.42-8.1.08-2.58.17-5.17.25-7.75l4.51,2.54C925,432.61,925,437.19,924.5,441.68Z"/><path class="cls-139" d="M710.14,89.17c1.72,5.51,4.31,2,6.71.66,1.74,1.17,1.18,3,1.27,4.63-4.65,0-9.94,2-12.8-3.83C706.73,88.78,708.58,89.52,710.14,89.17Z"/><path class="cls-140" d="M712.86,78.75c-.41,3.56-3.18,2.5-5.3,2.71l-5.29-2.68v-2.7c0-.89,0-1.78,0-2.68Q707.58,76.08,712.86,78.75Z"/><path class="cls-141" d="M763.21,192.64c.24,3.24,3.93,4.06,4.81,6.89-1.4,1.46-2.36,3.49-4.74,3.73,1.27-4.62-3.35-6.29-4.83-9.5C759.81,192.22,761.58,192.71,763.21,192.64Z"/><path class="cls-142" d="M527.52,73.23a17.92,17.92,0,0,1,18.35,0Z"/><path class="cls-143" d="M455.75,70.76c-2.15-.06-4.77.8-5.2-2.64,1.28-3.2,3-5.75,7-4.84C460.67,66.82,456.12,68.26,455.75,70.76Z"/><path class="cls-144" d="M855.92,176.83l-.15,3c-3.74-.13-7.49-.37-11.23-.34-2.23,0-4.11-.23-5-2.56,4-1,8.67,1.68,12-2.39Z"/><path class="cls-145" d="M723.47,685.37a2.65,2.65,0,0,1-2.78,2.81c-4.18-.45-8.08-1.43-10.53-5.31l.08-.09,2.76,0A14.68,14.68,0,0,1,723.47,685.37Z"/><path class="cls-146" d="M869,598.4c-.44,1.92-1.71,2.4-3.57,2.36-3.28-.08-6.56.06-9.84.11l-3-2.47Z"/><path class="cls-147" d="M726.54,68.08l-5.43,2.58c-.45-2.39-4.43-3.54-2-7.42C723,62.22,724.94,64.82,726.54,68.08Z"/><path class="cls-148" d="M638.57,55.19c-2.18,3.42-3,3.4-5.07-.1Z"/><path class="cls-149" d="M747.17,648.3c-3.11-.44-2.4-2.83-2.46-4.82C748.51,643.57,747.18,646.27,747.17,648.3Z"/><path class="cls-150" d="M543.23,55.07c-2,3.49-2.87,3.52-5.05.16Z"/><path class="cls-151" d="M771.25,627.54c-.07-1.08-.14-2.15-.22-3.23a3.65,3.65,0,0,1,.35-2.32c1.79.06,2.37,1.25,2.6,2.77A2.94,2.94,0,0,1,771.25,627.54Z"/><path class="cls-152" d="M281.13,250.85c2-3.5,2.8-3.55,5-.26Z"/><path class="cls-153" d="M811,242.85c2.14-3.52,3-3.53,5.13,0Z"/><path class="cls-154" d="M389.69,224.77c-.07-1-.13-2.08-.2-3.13l1.75-1.62C393.16,222.39,392.36,223.84,389.69,224.77Z"/><path class="cls-155" d="M371,208.5c-3.43-.42-2.3-3.06-2.48-5.06C372.35,203.65,370.94,206.43,371,208.5Z"/><path class="cls-156" d="M416.49,195.67c-1.71-.31-2.92-1.1-2.95-3H418C418.37,194.63,417.7,195.34,416.49,195.67Z"/><path class="cls-157" d="M747.33,187.55c1.92-3.83,2.84-3.9,5.16-.39Z"/><path class="cls-158" d="M424.22,187.12c2.34-3.46,3.23-3.39,5.16.39Z"/><path class="cls-159" d="M389.94,179.57c3.41,2.23,3.39,3.05-.17,5.12Z"/><path class="cls-160" d="M479.5,674.91l-4.83,0-.21-2.7h0C476.52,672.38,479.4,671.08,479.5,674.91Z"/><path class="cls-161" d="M734.06,174.19c-.41,3.45-3,2.51-5.09,2.52C729.31,173.13,732,174.36,734.06,174.19Z"/><path class="cls-162" d="M514.24,158.16c.45-3.46,3.14-2.37,5.2-2.55C519,159.16,516.44,158.25,514.24,158.16Z"/><path class="cls-163" d="M816,153.29c0,1.72-1,2.3-2.52,2.44l-1.71-1.54C812.91,152.66,814.48,153.12,816,153.29Z"/><path class="cls-164" d="M363.49,156c-1.41-.34-2.71-.8-2.7-2.62,1.49-.28,3-.86,4.38.27A2.07,2.07,0,0,1,363.49,156Z"/><path class="cls-165" d="M855.62,518.5c-3.44-2.47-3.35-3.38.51-5.19Z"/><path class="cls-166" d="M659.81,150c0,3.68-2.69,2.9-4.89,2.91C654.88,149.11,657.89,150.46,659.81,150Z"/><path class="cls-167" d="M519.87,153.37c-1.76-.4-3-1.27-3-3.28l4.59.42C521.76,152.25,521.07,153,519.87,153.37Z"/><path class="cls-168" d="M476.72,150.19c-2.09,0-4.53.7-4.91-2.56C473.71,148,476.56,146.5,476.72,150.19Z"/><path class="cls-169" d="M617.47,145c0,.91,0,1.81,0,2.71-1.58-.13-3.32.48-4.74-1.05C613.57,144,615.86,145.39,617.47,145Z"/><path class="cls-170" d="M805.59,145c2.2-3.72,3-3.72,5.27,0Z"/><path class="cls-171" d="M519.58,704.46c0-.9,0-1.81,0-2.72l5-.16a4.47,4.47,0,0,1,0,2.18Z"/><path class="cls-172" d="M524.6,703.76a4.47,4.47,0,0,0,0-2.18c2.24-.07,5-1.33,5.45,2.52l.11-.14Z"/><path class="cls-173" d="M657.05,701.75c0,.89.05,1.78.07,2.68l-5-.81C653.25,700.2,655.39,701.79,657.05,701.75Z"/><path class="cls-174" d="M368.78,547.38c-.27,1.49-.79,2.75-2.61,2.8-.25-1.49-.85-3,.29-4.4A1.88,1.88,0,0,1,368.78,547.38Z"/><path class="cls-175" d="M548.56,131.89c-1.52,3.76-3.21,3.86-5.08.24Z"/><path class="cls-176" d="M840.31,129.2c3.54.73,2.1,3.45,2.23,5.55C839.46,133.83,839.93,131.5,840.31,129.2Z"/><path class="cls-177" d="M392.35,126.4v-5.18a2.37,2.37,0,0,1,2.57,1.93C395.19,125,394.28,126.16,392.35,126.4Z"/><path class="cls-178" d="M840,465.53h-5.1c0-1.35.57-2.52,1.9-2.75C838.75,462.43,839.79,463.57,840,465.53Z"/><path class="cls-179" d="M503.65,743.75a2.41,2.41,0,0,1,2.55,2.58l-1.43,1.84C503.17,747,503.62,745.32,503.65,743.75Z"/><path class="cls-180" d="M821.31,123.71c-1.84,0-2.4-1.21-2.63-2.75.25-1.17.77-2,2.63-1.73Z"/><path class="cls-181" d="M781.89,115.61c0-1.76,1.21-2.33,2.7-2.58a8.08,8.08,0,0,1,2.39.39c0,1.83-1.24,2.46-2.82,2.68A20,20,0,0,1,781.89,115.61Z"/><path class="cls-49" d="M278.39,447c-.15,2.09.85,4.72-2.5,5.32C275.79,450.12,275.14,447.65,278.39,447Z"/><path class="cls-129" d="M381.82,110.55c-3.52-.25-2.65-2.87-2.71-5C383,105.62,381.47,108.58,381.82,110.55Z"/><path class="cls-182" d="M395.21,102.72c3.45,2.15,3.44,3,0,5.06C395.17,106.09,395.19,104.41,395.21,102.72Z"/><path class="cls-183" d="M781.8,105.25c-3.72-2-3.76-2.87-.29-5.19C781.61,101.79,781.71,103.52,781.8,105.25Z"/><path class="cls-184" d="M715.45,666.81l8,.09c-6.82,3.3-13,8.45-21.22,8h0c0-.93,0-1.85,0-2.77l-.09.14c2.12-.26,4.86.74,5.41-2.68a2.41,2.41,0,0,0,2.53-2.46Z"/><path class="cls-185" d="M715.45,666.81l-5.35.28c.52-3,2.67-4.51,5.23-5.61l2.19,1.1Z"/><path class="cls-186" d="M707.57,669.55c-.55,3.42-3.29,2.42-5.41,2.68C702.67,668.72,705.32,669.54,707.57,669.55Z"/><path class="cls-187" d="M702.25,672.09c0,.92,0,1.84,0,2.77h-5.21C697.41,671.35,700.18,672.38,702.25,672.09Z"/><path class="cls-54" d="M858.72,542.65c.11,5.11-4.36,8.35-5.33,13-1.19.12-2,.57-1.85,2.37l4.49.31-.14-.14c-1.26,4.59-5.15,2-7.79,2.87l-.13-.16v-5.28q2.67-5.29,5.35-10.57c3.8.25,1.41-5.58,5.22-5.33Z"/><path class="cls-188" d="M900.9,460.38c.34-2-.95-4.78,2.49-5.35.14,5.23,5.4,9.87,1.87,15.81C903.56,467.26,900.71,464.46,900.9,460.38Z"/><path class="cls-189" d="M866.52,550.33l2.05,1-2.11,4c-3.82-.16-6.5,3.91-10.57,2.82l.14.14-.08-2.69Z"/><path class="cls-190" d="M904,431.3l4.42,0c.29,1.67.57,3.34.86,5l-5.52,0Z"/><path class="cls-191" d="M858.72,542.65l-.18-2.92c0-.87,0-1.75,0-2.62.32-.68.56-1.88,1-2,1.5-.25,1.57,1.08,1.77,2.14C861.29,539.5,861.65,541.87,858.72,542.65Z"/><path class="cls-192" d="M328.66,561.16c-1.93-.59-4.87.67-5.25-2.82,0-.86,0-1.71.06-2.57.26-6.09-5.59-10-5.75-15.9l5.5-.1c.71,5.67,3.52,10.59,5.54,15.79C328.73,557.43,328.7,559.3,328.66,561.16Z"/><path class="cls-193" d="M344.36,590.1c0,1.54.87,3.2-.74,4.61-2.75-.83-1.21-3-1.41-4.62C342.93,590.06,343.64,590.06,344.36,590.1Z"/><path class="cls-194" d="M649,690.52c.37-2-.2-4.6,2.88-5.09C651.7,687.55,653,690.5,649,690.52Z"/><path class="cls-195" d="M474.46,672.18l.21,2.7c-6.36,1.29-10.77-3.43-16.12-5.25L453.23,667l-2.62-.1c0-.84,0-1.68,0-2.53,4.59-1,8.31,1.45,12.17,3.14S469.79,672.52,474.46,672.18Z"/><path class="cls-51" d="M453.23,667l5.32,2.68c-.39,1.79-1.34,3-3.3,2.36C452.62,671.18,453.47,668.81,453.23,667Z"/><path class="cls-196" d="M421.37,656.28c2.19.14,4.9-.74,5.43,2.72l-2.72.08C422.47,658.83,421.42,658,421.37,656.28Z"/><path class="cls-197" d="M432,659.1a2.39,2.39,0,0,1-2.6,2.49,2.52,2.52,0,0,1-2.69-2.67Z"/><path class="cls-198" d="M408.12,648.34c5.62.76,10.73,2.37,13.38,8C416,655.46,410.68,654.19,408.12,648.34Z"/><path class="cls-199" d="M310.3,550.27c2.75-.4,4.89.91,6.61,2.74s3.85,3.07,6.56,2.76c0,.86-.06,1.71-.06,2.57-4.86,1.07-8.66-2.61-13.2-3-.68-1.35-1.36-2.71-2-4.06Z"/><path class="cls-28" d="M845.35,555.6a6.42,6.42,0,0,0,2.62,0v5.28C844.41,560.46,845.51,557.72,845.35,555.6Z"/><path class="cls-200" d="M734.13,650.89c1.69-3.56,4.1-6.4,7.91-7.82l56.74-26.93c-1.7-1.45-.84-3.2-.93-4.8l-5.91-.23c-3,1.29-4,4-5.3,6.74-4.46,9.45-10.09,18.13-18.29,24.88.07,1,.13,2.06.2,3.1l5.35-.17-.16.15c1.54-4.23,5-7.23,8.43-9.24,10.08-5.84,16.32-15.94,25.84-22.33.48-.32.31-1.62.44-2.47,8.18-6.1,14.34-14.19,21.16-21.62-.09-1.73.93-2.55,2.43-3-.16-1.95.82-4.44-2.35-5Z"/><path class="cls-201" d="M744.66,659c4,1,6.57-3.68,10.57-2.66l2.7,0c-3.26,4.58-9,4.95-13.27,7.91l-2.07-1.1Z"/><path class="cls-202" d="M723.45,666.94c.43-3.56,3.21-2.46,5.32-2.68C728.3,667.73,725.55,666.69,723.45,666.94Z"/><path class="cls-203" d="M522.11,682.8l-2.81.08c-3.71-5.06-3.68-8.74.13-13.29.8,2.64,3.6,4.57,2.75,7.79C522.16,679.19,522.14,681,522.11,682.8Z"/><path class="cls-204" d="M522.18,677.38c.85-3.22-1.95-5.15-2.75-7.79a2.71,2.71,0,0,0,2.76-2.75c4.27,2.37,2.17,7.69,5,10.75a21.11,21.11,0,0,0-2.38-.08A22.81,22.81,0,0,1,522.18,677.38Z"/><path class="cls-205" d="M448,696.16l5.26-.14c-.45,3.61-3.22,2.49-5.37,2.64A14.9,14.9,0,0,0,448,696.16Z"/><path class="cls-59" d="M524.79,677.51l-.29,5.3h-2.39c0-1.81,0-3.61.07-5.42A22.81,22.81,0,0,0,524.79,677.51Z"/><path class="cls-28" d="M853.32,545.06c0-2.6,0-5.2,0-7.79a19.12,19.12,0,0,1,2.5-.19l2.69,0c0,.87,0,1.75,0,2.62C854.73,539.48,857.12,545.31,853.32,545.06Z"/><path class="cls-206" d="M757.93,656.34l-2.7,0c.53-3.41,3.26-2.48,5.39-2.72A2.64,2.64,0,0,1,757.93,656.34Z"/><path class="cls-207" d="M273.23,465.52l-.21,7.85C269.44,470.35,269.5,468.17,273.23,465.52Z"/><path class="cls-208" d="M317.72,539.87c-3.4-2.7-4.48-6.57-5.31-10.55,4.71.25,5.43,4.27,6.5,7.46l4.25.32.06,2.67Z"/><path class="cls-209" d="M323.47,568.87c.37-3.57,3.13-2.39,5.18-2.61C328.25,569.76,325.56,568.73,323.47,568.87Z"/></g><g class="cls-210"><path class="cls-6" d="M792.48,213.73c-2.06-4.57-4,0-5.73.35-6.58,1.18-12-3.79-18.33-3a6.79,6.79,0,0,0-5.31-5.17,23,23,0,0,0,.17-2.62c2.38-.24,3.34-2.27,4.74-3.73-.88-2.83-4.57-3.65-4.81-6.89l1.93-1.2c-1.39-3.93-6.12-3.4-8.23-6.11l-4.42,1.83c-2.32-3.51-3.24-3.44-5.16.39s-3.69,3.64-5.33-.2c-1.59-5-5.59-1.74-8.43-2.46l-7.5-.22q-1.3-2.61-2.62-5.21c2.18-.23,4.85.52,5.52-2.75,2.11,0,4.68.93,5.09-2.52a14.15,14.15,0,0,0,0-2.52c.06-1,.13-2.08.19-3.11,3.65,0,2.36-7.64,7.72-5,3.62-.33,2.55-3.1,2.72-5.23a6.61,6.61,0,0,1,2.49.09c3.34,1.57,9,8.32,10.92,12.72l-2.35,4.64c1.42,1.06,2.14,3.4,4.62,3.61a44.16,44.16,0,0,0,2.92,4.07,49.39,49.39,0,0,0,3.85,3.47l4.41-7.48c2.51-.34,5.17,6.84,7.55-.15a10.61,10.61,0,0,1,.15-2.52c1.61.28,3.51-.44,4.71,1.31,2.68,2.42-3.27,4.08-.42,6.65h3.71c3.11,1.92,4.06,6.14,7.89,7.24v15l6.13,6.53,5.78-3c.74-2.11-3-4.09-.55-6.51,2.47-1.66,3.95.47,5.76,1.47,1.65-1.22,1.16-3,1.2-4.74l5.72,2.51c4.13,1.53,1.81,5.11,2.46,7.75-.32,5.58-.76,11.18,4.21,15.31l1.14-2c4.72,2.73,2.81,6.93,1.35,10a14.6,14.6,0,0,0-1.27,8.6l-3.33.3-7.6-.34c-2.17-3.51-3-3.5-5.13,0-7.61,0-12.61-6.51-20.6-8.12.66-5.48-4.37-8.9-6.08-13.25,2.15-5.37,6.4,3,8.11-2.23,1.65-.3,3.58.38,4.81-1.37C798.22,213.52,795,214.08,792.48,213.73Z"/><path class="cls-7" d="M787.17,137.09v-8.57c-1.86-2.21-3.48-4.14-5.27-6.25l4.7-1.93c-.81-1.41-1.63-2.82-2.44-4.24,1.58-.22,2.78-.85,2.82-2.68l4.19,1.57,5.25-9.34c2.05-3.22,4.76,5.5,6.67-.37,6.78,2.75,6.59,9.8,8.84,15.81l1.74-2.76,5,2.63c.23,1.54.79,2.75,2.63,2.75-.43,3.26,2.43,5.46,2.78,8.37a78.79,78.79,0,0,1,.07,9.11l6.9,5.85c1.29-1.42,3.43-2.38,3.85-4.75l5.15-2.63c3.29-.39,2.3-2.95,2.48-4.91-.13-2.1,1.31-4.82-2.23-5.55,0-1.44.56-2.43,3.39-2.57,6,4.27,6.12,12.69,9.49,19.17,3.48,6.69,5.59,14.09,8.22,21l-3.13,10a23.2,23.2,0,0,0-2.36,0l-4.4-2.26c-3.36,4.07-8,1.43-12,2.39l-22.57-8.76c-1.58-3.74.13-8.95-3.46-12.47,1.49-.14,2.56-.72,2.52-2.44l4.61,1.76c1.12-1.76.75-4.35,3-5.46l-2.18-4.34c-2.57-3.92-4.73-4-7.86-.32h-2.7c-2.26-3.68-3.07-3.68-5.27,0l-5.35-2.75C796.61,138.66,791.82,138.05,787.17,137.09Z"/><path class="cls-8" d="M556.63,70.77a12.78,12.78,0,0,1-10.76,2.49,17.92,17.92,0,0,0-18.35,0c-8.3-3.4-11.81-3.37-18.61.12.23,3.53,2.86,2.66,5,2.71-.53,4-4.29,5.21-6.38,7.66-2.08.55-3.44-.7-5-1.5-2.63.31-.89,4.15-4.81,4.52-4.26-.72-9.45-3.06-15.23-2.84-2.43.09-4.6-2.23-5.47-5l.08-8.18c3.62-1.9,3.68-2.75.35-5.07-.06-3.45,2.6-2.64,4.57-2.9,4.29.58,7.1-1.11,8.24-5.37l-.08,0,5.54.08c3.2.66,5.62-1.46,9.25-3.86.43,7,8.2,6.24,9.21,12,2.3,3.6,3.09,3.59,5.25,0,6-4,11.7-8.36,18.75-10.38,2.18,3.36,3,3.33,5.05-.16l3.4,1.1c3.1,1.39.91-2.09,1.68-2.06,2.78-2.23,5.08-2.34,7.5-1-.25,2.3-2.5,1.38-3.58,2.37-.45,1.5.55,1.91,1.73,2.18.5,3.55,3.36,2.28,5.41,2.65.75,3.21-2.27,5.1-2.77,7.87A22.21,22.21,0,0,0,556.63,70.77Z"/><path class="cls-9" d="M281.13,250.85a8.57,8.57,0,0,1-2.42.22l-5.34,0-5.62-10.51c1.24-4-2.42-9.43,2.51-13.4,2.1-2.16,4.4-8.31,3.8-10.39-.06-.19-.76-.2-1.16-.3,3.56-2.67,1-8.38,5.32-10.68.22,1.7,1,2.81,2.88,2.85.72,3.47,6.38,2.65,6,6.78l7.12-1.52a2.52,2.52,0,0,0,2.65,2.67c3.05,5.19,8.11,5.45,13.29,5.39q1.32,2.57,2.63,5.13c-3,1-5.86,3.34-6.57,5.77-1.84,6.24-7.31,7.65-11.68,10.6a2.61,2.61,0,0,0-2.06-2.5c-2.36,1.93-4.23,4.09-3.52,7.46-.24,1.64-1.08,2.52-2.84,2.22C283.93,247.3,283.1,247.35,281.13,250.85Z"/><path class="cls-7" d="M371,208.5a7.83,7.83,0,0,0,5.45,5.43c.36,3.41,3,2.41,5.05,2.64,3.53-.19,2.47,3.68,4.53,5.07h3.49c.07,1.05.13,2.09.2,3.13-.82,2.7,1.24,4.57,2.07,7-6.73,5.92-15.93,6.64-23.45,10.9-2.61-3.58-5.18-3.69-7.69.1-3.22-.5-5.36,1.9-8,3,0-1.84-.07-3.68-.11-5.53a14.12,14.12,0,0,1-2.6-10.45c3.6-2.77,3.67-4.76.27-7.85,2.82-5.19,2.33-11.9,7.39-16.06,3.75.38,2.26-3.82,4.4-5l3.58-.3a3,3,0,0,0,2.93,2.85C368.67,205.44,367.54,208.08,371,208.5Z"/><path class="cls-10" d="M352.8,147.78c1.11,4.08,5.83,3,8,5.6,0,1.82,1.29,2.28,2.7,2.62l-2.88,4.29c-.29,2,1.25,3.13,2.35,4.8-6.09,5.52-13.93,7.86-21.08,11.44-1.11-3.78-4.66-3.08-6.28-1.95-3.63,2.55-7.16,2.64-11.07,1.79-.79-1.45.41-2.22,1-3.3-1.34-3.33-6.38-5-4.4-10.61,1.15-1.53,2.83-3.75,4.43-5.89-1.69-1.63-2.47-3.38-4.48-3.54-.23-1.74.71-2.5,2.28-2.73,4-.82,4.51-4.5,6.31-7.29,2-3,2-7.77,6.82-8.6a2.9,2.9,0,0,0,2.82,2.85L337,142l4.95.35c1.3,3.71,3.85,5.57,7.84,5.29Z"/><path class="cls-11" d="M848.53,274.66c3.11-1.19,3.48-1.22,6.55-.41.8-3.5,1.44-7.09,3.71-10,4.76.52,3.79,6.67,7.78,8l4.22.37c2,4.11.7,8.62.84,13-3.3,3.49-3.33,6.68-.12,10.37-.36,4.21-6.46,5.72-5.08,10.75-1.86.06-2.52,1.26-2.74,2.89-8.48-3.75-17.67-6.56-23.89-13.81-4-4.7-7.66-9.68-15.53-13.42,9.11-1.69,16.38-1.51,21.08-7.48Z"/><path class="cls-12" d="M305.17,282.8c4.59-7.46,4.24-17.44,11.7-23.57,2.61,2.74.41,6.09,1.78,8.86,2.47,2.08,6.52,2.42,7.5,6.37,0,3.67,2.72,2.9,4.92,2.94,1.86,4.73,5.88,2.48,9,2.61,3.51.15,7-.28,9.44,4.31-6.17,5.4-12.62,10.92-18.93,16.6a21.06,21.06,0,0,1-15.05,5.75c-.58-1.51,1.1-4-1.88-4.56-1.47,2.41-.63,4.9-.69,7.32l.05,0-2.83-.15c1.52-4.87-3-8.47-2.72-13.09.05-3.27,0-6.55.16-9.82C307.71,284.44,307,283.28,305.17,282.8Z"/><path class="cls-13" d="M355.38,126.53V115.66c2.9,2.49,3.95,6.48,7.46,5.43,3.94-2.34,4.12-4.3.71-7.75-.33-1.67.44-2.54,2-2.82,2.91-.3,4.84-3.67,8.18-2.6l5.34-2.36c.06,2.12-.81,4.74,2.71,5,2.88.45,3.8,3.44,6.09,4.65l4.44-1.94-.09-.11c.32,2.19.17,4-1.58,5.89-1.16,1.22.49,1.87,1.66,2.18v5.18c-2,6.19-2.07,8.34-.44,15.12-6.72,2.36-14.55-1.25-20.8,3.45-2.72-6.15-8.78-.3-12.45-3.52-.9-1.57-.67-4.22-3.5-4.41a11.82,11.82,0,0,1-.09-2.52C358.86,131.67,358.94,129.63,355.38,126.53Z"/><path class="cls-14" d="M326,529.12c.71-.4,2-.78,2.05-1.2.26-10.82,1.84-21.5,3.09-32.23,1.24-10.49,4.08-20.37,6.41-30.07,3.86,0,4.42,1.39,4.53,3.33.75,12.65-1.49,25-4.65,37.09-4.34,16.7-3.39,33.68-3.22,50.6,0,3.92,2.33,7.81,4.14,13.44.77-6.87,3.17-11.38,4-16.55.66-4.17,2.07-9.48,7.42-11.34.5,1.94-.91,4.79,2.54,5.33-2.71,9.54-5.41,19.09-8.06,28.44l5.52,8.87c-1.76.09-2.46,1.17-2.58,2.78-1.84-.19-2.53.93-2.82,2.49-.72,0-1.43,0-2.15,0-1.95-8.76-5.23-16.89-11.1-23.82q-1.22-2.55-2.45-5.11c0-1.86.07-3.73.1-5.6,2.08-.28,3.06-1.62,2.54-3.5C329.2,544.48,329.58,536.34,326,529.12Z"/><path class="cls-15" d="M389.94,179.57a2.18,2.18,0,0,1,2.12-2.83l5.66.1c1,4.88,3-.82,3.14-.62,3.23,2.73,4.82,4.72,5.25,7.49,2.67-.86,5.06,0,7.42,1.14.07,1.77,1.12,2.52,2.76,2.65l-2.75,5.13c0,1.94,1.24,2.73,2.95,3-.23,3.45-.45,6.91-.67,10.36-4.05-.6-5.43,1.37-4.94,5.13-6.88-.39-13,4.38-20.11,2.84-1.85-.4-3.27-.64-3.79-2.61-.28-3.68-3.07-2.65-5.24-2.79,0-.92.09-1.83.14-2.75,3.33-3.51,3.38-6.66.15-10.37-.1-2.13-.21-4.27-.3-6.22,1.82-2.72,2.73.58,4.32.1,1.52-1.08,3.25-2.36,3.72-4.67C393.33,182.62,393.35,181.8,389.94,179.57Z"/><path class="cls-16" d="M906.5,221.77c3.1.85,2.31,3.25,2.14,5.4-2.69.94-4.51-1.86-8.58-1.6l5.94,6.17c-1.74,5.84.15,13.29-8.14,16.92-4,.09-7.9-4.42-12.91-2.91l0,0,2.31-4.49c-3.57-1-6.33-4.42-10.54-3.46l-3.55-.4c-2.15-1.82,1.28-2.64.32-4.32-1.26-1.06-4.2-.43-4.3-3.36,3.79-1.16,5.6-3.66,5.17-7.67a9,9,0,0,0,5.64-5.63c1.84-.1,2.39-1.36,2.63-2.9l4.13,2.51c3.54-2.5,3.94-7,6.59-10.11,2.64.94,4.71,2.8,4.84,5.49C898.5,217.08,902,219.76,906.5,221.77Z"/><path class="cls-17" d="M922.22,418c1.86-.58,2.49-1.86,2.47-3.76-.07-6.73-.05-13.46-.06-20.19,0-16.26,1.23-32.65-.32-48.77a254.61,254.61,0,0,0-11-53.93c-4.08-12.58-8.46-25.06-12.7-37.58l3.14-.2A235.59,235.59,0,0,1,922.05,306c2.88,12.52,3.94,25.44,6,38.07,3.17,19.2,1.57,38.25,1.81,57.34.12,9-2,18-3,26.94l-4.51-2.54q0-3.94-.08-7.88Z"/><path class="cls-11" d="M702.27,78.78l-5.21,2.79c-.37-.74-.73-1.48-2-4.1-4.43,7.73-10.35,2-16.6,1.76,1.8,2.83,3,4.59,5.46,5-1.12,3.43-5.3,3.48-6.13,2.28C674,81.05,665.69,82.52,663,76.05h6.86c-.07-2-1-2.5-2.22-2.72-.27-2.29-1.86-2.51-3.72-2.47-4,.08-7.92.07-11.87.1a2.47,2.47,0,0,1,2.63-2.82c2.58-.87,6.41,2.25,7.78-2.45a10,10,0,0,1,2.56-.24h5.27l-2.45-4.93c2.67-.52,2.51-3.21,3.3-4.57,3-2,4.34.44,7.76,2,1.81.74,3.21-5,7.17-3.09,3.46,4.59,11.31,3.95,13.47,10.7-1.48.14-2.92,1.33-2.4,2.35,1.43,2.85,1.47,6.7,5.15,8.15Z"/><path class="cls-16" d="M710.14,89.17a9.94,9.94,0,0,0-.15-2.31c1.2-.12,2-.66,2.4-2.4l-4.49-.37-.34-2.63c2.12-.21,4.89.85,5.3-2.71a2.9,2.9,0,0,0,3-2.69c2.07,0,4.52.67,5-2.53.11-1,.22-1.91.32-2.87l5.43-2.58a42.09,42.09,0,0,1,13.83,5.64c1.73,1.15,1.55,3,1.74,4.7,0,1.92-.55,4,1.59,5.42l3.45.2q.2,3.9.4,7.82c-5.46,1.51.65,3.42-.18,5.09l-7.61.45c-3.58,1-8.24-2.84-10.91,2.39h-8.93c-2.9-1.1,3.25-5-1.8-5.33-.09-1.64.47-3.46-1.27-4.63C714.45,91.16,711.86,94.68,710.14,89.17Z"/><path class="cls-18" d="M455.75,70.76l.15,2.75C456.34,77,459,76,461.09,76.1a2.61,2.61,0,0,0,2.75,2.67l-2.26,4.28c1.85,2.19,3.81,4.34,7.22,3.63l.38,2.66c-2.42,2.06-6.43,1.7-7.93,5.18-2.1.38-4.88-.54-5.42,2.83-4.1,0-8.2,0-12.3-.12-1.91-.06-3.06.64-3.45,2.52-4.11,1.38-6.72-3.36-10.67-2.61.71-3.46,6.52-6.89.07-10.4-.74-2.95.86-4.95,2.72-6.89,4.54-4.7,9-9.44,13.4-14l4.95,2.27C451,71.56,453.6,70.7,455.75,70.76Z"/><path class="cls-19" d="M426.91,97.42c1.65,2.76,1.72,6.52,5.19,8.12l-2.1,4,2.23,1.12c-6.56,6.21-15.91,3.88-24.44,7.59-3.66-4.13-10.8-.72-15.53-5.14l.09.11c.94-1.82,1.87-3.65,2.81-5.48,3.49-2.1,3.5-2.91,0-5.06,1.43-2.86,1.52-6.53,5-8.17.15,1.22.63,2.1,2.69,1.9V91.78c.94-3.46,4.25-4.87,6.3-7.36l4.19,2,.26,3.3a15.32,15.32,0,0,0,10.52,5C424.2,96.55,425.29,97.26,426.91,97.42Z"/><path class="cls-20" d="M765.82,86.86l4.49-2.22c1.34,6.75,7.92,9.73,11.2,15.42-3.47,2.32-3.43,3.18.29,5.19l2,1.33c-2.81,2.52.13,4.35.77,6.45-1.49.25-2.67.82-2.7,2.58-4.19.79-8.89-.82-12.55,2.82-7.91-3.83-17.75-1.36-24.91-7.7,1.55-.69,4,.9,4.82-1.89-1.45-1.36-4.38-.55-4.64-3.37a17.86,17.86,0,0,0,7.89-7.75l.1-3A13.38,13.38,0,0,1,763.32,92C766.62,91.49,765.72,88.93,765.82,86.86Z"/><path class="cls-16" d="M448.15,158.32c2.61-11,12.32-14.23,20.77-18.83.42,3.33,2.86,2.88,5.12,2.76l-2.23,5.38c.38,3.26,2.82,2.58,4.91,2.56a3.16,3.16,0,0,0,3,2.88l-2.29,4.87,5.14.26c.6.41,1.2.82,1.81,1.22-2.68,2.55.23,4.53.67,6.77-3.3,0-6.61,0-9.92-.06a3,3,0,0,0-3.34,2.73,14.92,14.92,0,0,0,0,2.59l-5.43-2.61c-2.28,2.19-6.25,1.6-7.76,5-1.73.25-2.55-.62-2.78-2.23C455.26,166,450.24,163,448.15,158.32Z"/><path class="cls-8" d="M691.86,166.22c1.81-3.23,3.11-6.57,2.19-10.38,1.66-.24,2.86-1,2.93-2.83,5.47.2,6.69-5.37,10.36-7.62a3.39,3.39,0,0,1,3.29-3.26l6.67.57c3.36,5.36,11.36,7.41,11.24,15.59-1.69.13-3.56-.34-4.55,1.38-1.91,2.57,1.92,3.55,1.44,5.53-1.28,2.5-4.52,3.33-4.53,6.46l.06-.09-15.85,0c-.06-.91-.13-1.81-.19-2.71a2.94,2.94,0,0,0-3.28-2.71C698.38,166.2,695.12,166.2,691.86,166.22Z"/><path class="cls-6" d="M506.25,134.38c2.84-.4,4.76-3.72,8.18-2.47,4.43,3.23,6.24,9.91,13,10.4.35,3.89-5.51,1.49-5.3,5.24-1.92.48-4.61-.62-5.25,2.54,0,2,1.23,2.88,3,3.28-.15.75-.29,1.49-.43,2.24-2.06.18-4.75-.91-5.2,2.55-3,.12-2.5,3.32-3.48,5.46l-1.92-2.46c-3.17-3.81-6.55-3.95-10.53-.44-3.29-.22-4.4-3.63-8-5.21h-5.27c.79-4,6.4-2.26,7.78-8.78v-7.41a7.63,7.63,0,0,1,5.45-4.91c.2,1.59-.5,3.36,1,4.7,2-2.29,4.69.19,7-1.09Z"/><path class="cls-21" d="M686.2,688.18c-24.32,5.25-48.69,9.88-73.64,7.25-.42-4,1.4-4.69,3.87-4.7,6.59,0,13.19-.08,19.78-.08,2.2,0,4.45.26,5.27-2.53h2.25c.71,3.14,3.13,2.49,5.3,2.41,3.93,0,2.67-3,2.88-5.09,3.79-4.58,1.38-11.3,5.44-15.79,2.46.23,3.41,2.32,4.81,3.71.44,5.14-4.14,8.22-4.85,13.77,8.32.18,15.68-4.17,23.63-4.51,3.39,1.36,5.29-1.93,8-2.56l4.21,2.29c2.83-1.82,4.49-6,9.07-4.84,2.49,2,6.56,1.64,8,5.28l-.08.09c-7.14.09-13.83,2.55-20.69,4.06-.23.05-.31.77-.45,1.18Z"/><path class="cls-22" d="M477,693.38l-2.72-.28c-.05-1.7-1.16-2.27-2.63-2.46,4-5.63,10.69-.1,16.23-4.37-7.88-.1-14-4.61-21.29-3.42l-2.88-.09c-7.91-7.57-18.86-8.68-28.21-13.18-4.92-2.36-10.17-4.05-14.27-7.88,1.63-.13,2.71-.85,2.81-2.62l2.72-.08-.08-.08a2.52,2.52,0,0,0,2.69,2.67c2.61,4.7,8.6,1.62,10.86,5.56,2.85-1.51,4.44-4.67,7.12-1.68l-1.56,3.18c2.66,1.63,4.13.91,4.78-1.8l2.62.1c.24,1.86-.61,4.23,2,5,2,.6,2.91-.57,3.3-2.36,5.35,1.82,9.76,6.54,16.12,5.25l4.83,0c4.14-1.43,6.63,3.77,10.69,2.66,1.46,4,4.45,5.58,8.61,5.24,2.09-.17,4.13-.12,4.84,2.47q-1.32,2.61-2.66,5.22c-2.9-.39-5.26-3.86-8.88-.75-1.54,1.33-4.67.81-7.07,1.13C482.27,691.4,478.51,688.75,477,693.38Z"/><path class="cls-23" d="M662.37,136.65c.12-1.26.23-2.52.33-3.65,3.52-3.76,5.74,3,9.19.81,1.62-1.48-1.5-2.43-.3-4.5,3.64-.65,5.48,1.91,7,5l-2.16,1.12a4.36,4.36,0,0,0,3.71,3.61l1.1-2.21c3.63,0,5.57,1.52,5.17,5.36,0,4.55-.91,9.28,2.63,13.12l-5.38,2.86c-.34-2.08-1.6-2.77-3.58-2.36l-12.25,1.45V161c-.12,1.25-.69,1.93-2.42,1.56-.08-1.4-.17-2.91-.25-4.42-1.31-4.8-5.23-1.72-7.84-2.6-1.62-.16-2.64-.87-2.42-2.69,2.2,0,4.88.77,4.89-2.91,0-.69,0-1.39,0-2.08C658.86,143.74,663.77,140.92,662.37,136.65Z"/><path class="cls-24" d="M424.08,659.08c-.1,1.77-1.18,2.49-2.81,2.62-5.82-2.74-12.51-3.51-17.41-8.45-3.5-3.55-7.72-3.2-11.89-.5-4.67,3-9.65,5.6-14.18,8.82-4.22,3-8.8,4.11-14.13,5.42,3.24-10.57,6.09-12.32,31.13-19.86-12.76-6.94-23.37-16.31-34.74-24.62-2-1.48-3.36-3.88-5-5.86,1.61-.11,2.67-.82,2.81-2.55,7.9,5.24,13.66,13.1,22,17.81,9.55,5.38,17.06,14.28,28.42,16.55l-.15-.12c2.56,5.85,7.87,7.12,13.38,8l-.13-.11C421.42,658,422.47,658.83,424.08,659.08Z"/><path class="cls-25" d="M257.52,460.2a366.52,366.52,0,0,1-8.72-49.36c-1.38-13-2.56-26-2-39,.51-12.52,1.94-25,3.08-37.5.05-.61,1.21-1.11,1.85-1.66.56,2-.9,5,2.59,5.65C251.17,357,252,375.72,252,394.44c0,12.15,3.08,23.88,4.5,35.8,1.07,9,4.51,17.71,3.63,26.94C259.85,458.72,259.38,460.05,257.52,460.2Z"/><path class="cls-26" d="M866.52,550.33c.27-1.42,1.18-2.59,2.5-2.57,6.26.11,9.4-4.63,13.3-8.21.15,1.62.85,2.72,2.63,2.81,1,1.83,2,3.66,2.88,5.26-1.33,7.48-11,3.21-12.93,10.25,17.59,1.58,36.36-3,53.51,10.08-8.66,1.48-15.5,2.31-22.11-1.6a3.05,3.05,0,0,0-3.45-2.83c-5.13.12-10.26.16-15.39.22H871.4c-2.78.44-1.49,5.08-4.86,5.17a2.53,2.53,0,0,0-2.75-2.65c-.61-1.52-1.23-3-1.83-4.56,2.3-1.72,6.84.9,7.27-4a3.33,3.33,0,0,0-2.77-2.34l2.11-4Z"/><path class="cls-27" d="M771.38,622c10.62-23,19.84-46.74,31.54-69.3.63-1.21,1.3-2.17,2.72-2.36h5.22c-1.23,9.61-7.15,17.36-10.88,25.9-7.33,16.79-14.28,34-26,48.54C773.75,623.24,773.17,622.05,771.38,622Z"/><path class="cls-28" d="M840,465.53a277.38,277.38,0,0,1,8.28,53c-.06,4.14-.07,8.3-.19,12.44-.06,1.92.66,3.1,2.56,3.51-1.4,3-3.38,5.76-2.53,9.35s-1.34,6.32-2.9,9.2c-.73,0-1.46,0-2.19,0,4.56-11.93-2.09-23.65-.66-35.51-4.84-5.79.24-14-4.87-19.75.82-10.88-4.84-21.23-2.6-32.21Z"/><path class="cls-29" d="M424.22,187.12,419,185l-.29-3.29-2.63-4.88c3.49-3.83,1.23-11.15,7.95-13.45a6,6,0,0,0,4.58,4.82c1.29-2.72,6.06-.92,6.28-4.94,5.22-2.11,4,5,7.62,5.28l.25,3.24c0,.77-.05,1.53-.09,2.3.12,1.63.25,3.25.39,5.09l4.92-2.39a11.65,11.65,0,0,1,.08,2.36c-2.11,4.05-5.85,5.28-10,5.48-2,.1-3,.94-3.34,2.82-1.75,3.75-3.53,3.75-5.33,0S426.56,183.66,424.22,187.12Z"/><path class="cls-30" d="M863.69,309.53c.22-1.63.88-2.83,2.74-2.89,9.31,21.65,17.17,43.71,19.18,67.45,0,.54,1.24,1,1.9,1.47l.36,23.51c-.15,8.67-.3,17.34-.46,26.62-3.12-1.77-2-3.74-2.4-5.29a279,279,0,0,0-20.71-107A16.91,16.91,0,0,1,863.69,309.53Z"/><path class="cls-31" d="M869,598.4c2.91,1.43,6.58,1.46,8.54,4.62l-2.7,1.4,2.3,4.08-2.41,2c14.79,2.6,24.37,11.24,31.22,23.85-5.76,2.72-8.28-1-10.79-3.77-8.71-9.73-20.52-13.87-32.16-18.41-3.44-1.33-6.94-.74-10.39-.84-3-.08-5-1.07-6.91-4.44,7.74-1.76,14.92-.68,23.27,3.46-3.24-7.94-10.69-4.7-13.38-9.43,3.28,0,6.56-.19,9.84-.11C867.3,600.8,868.57,600.32,869,598.4Z"/><path class="cls-14" d="M302.23,563.58c-12.57.4-24.83,3-37.19,5-.37-1.91-1.59-2.59-3.43-2.37-2.17.27-4,0-4.44-2.65a32.39,32.39,0,0,1,21.29-5.08c3.6,3.31,6.83,3.32,10.46,0l13-.59c-1.76-7.14-11.64-2.69-12.81-10.35l2.82-5.27c3.28-.6,2.08-3.22,2.35-5.18a22.76,22.76,0,0,0,13.48,10.54,3.31,3.31,0,0,1,2.54,2.61l-2.14,1.05c.69,1.35,1.37,2.71,2,4.06a3,3,0,0,0-2.85,3A7.06,7.06,0,0,0,302.23,563.58Z"/><path class="cls-32" d="M310.18,309.25l2.83.15c-.21,2.16.13,4.58-.73,6.44-8.1,17.69-12.15,36.43-15.51,55.47-2.86,16.24-4.06,32.56-5,49-.45,2.07.88,5-2.71,5.54,0-12.25-1-24.59.21-36.71a214.33,214.33,0,0,1,7.1-38.88C300.42,336.35,303.31,322.15,310.18,309.25Z"/><path class="cls-7" d="M654.66,68.14A2.47,2.47,0,0,0,652,71v-.09c-6.75,0-13.51,0-20.27-.13-2,0-3.16.59-3.6,2.53-2.23.13-4.77,1-5.41-2.44,0-.9,0-1.8,0-2.7-1.88-3.61-7.51-4.31-6.64-10.16,2.08-1.91,6.08.94,9.07-1.59l-4.32-2.67c.55-.46,1-1.16,1.65-1.33,4.13-1.09,7,3.13,11,2.71,2,3.5,2.89,3.52,5.07.1a2.17,2.17,0,0,1,2.82,2.06c.13,1.74.69,3.13,2.79,3A2.27,2.27,0,0,0,646.45,58c4,1,6.25,3.9,8.19,7.2Z"/><path class="cls-33" d="M394.51,608.8c-10.46-14.38-16.47-31-23.44-47.08-1.66-3.84-3.27-7.7-4.9-11.54,1.82,0,2.34-1.31,2.61-2.8,9.07,7.92,13,19.06,18,29.44S395.65,598,400,608.64Z"/><path class="cls-34" d="M843,553c.73,0,1.46,0,2.19,0a9.07,9.07,0,0,1,.17,2.6c.16,2.12-.94,4.86,2.62,5.31l.13.16c-1.34,7.4-7.22,12.14-11.11,18.81v9.74l-5-2.44c-.16-1.95.82-4.44-2.35-5,2.87-5.69,3.57-11.14.39-17.27-2.31-4.44-2.69-9.85-4.66-14.52-1.47-3.49-1.75-6.57-.42-10,8.14,3.37,11.28,10,13.28,27.78C842.79,564,842.69,558.46,843,553Z"/><path class="cls-35" d="M522.13,147.55c-.21-3.75,5.65-1.35,5.3-5.24,5.54-3.09,9.18-9.19,16.05-10.18,1.87,3.62,3.56,3.52,5.08-.24l5.17,1.84c1.33.1-.2-6.16,4.32-4.16,1.67,2-2.32,3-1.46,4.89.47,3.54,3.33,2.35,5.39,2.72.81,3.17-2.06,5-2.73,7.67,0,1,0,2,0,3.06-.84,3.11-3.25,2.32-5.4,2.18-.08-1.25-.16-2.5-.36-5.6-4.56,5.1-9.61,2.76-14.42,3-2,.11-3.22.58-3.66,2.57C531.32,147.57,526.8,147.2,522.13,147.55Z"/><path class="cls-36" d="M720.69,656.16c9.41-10.39,17.29-21.79,22.78-34.73a30,30,0,0,0,1.17-4.86c3.62-.47,2.47-3.22,2.58-5.37.21-1.51.42-3,.68-4.84l4.81-.67c2.23,8.46-2.36,22.81-7.9,30.52-1.57,2.17-3.3,4.06-2.89,7l.12-.1c-3.81,1.42-6.22,4.26-7.91,7.82l-.07,2.78c-4.17-.74-7,2.27-10.23,3.91C721.42,658.81,721.15,657.94,720.69,656.16Z"/><path class="cls-37" d="M885,420.4c.42,1.55-.72,3.52,2.4,5.29.16-9.28.31-17.95.46-26.62,2.58,1,2.44,3.08,2.41,5.3-.07,7.8,0,15.59,0,23.52,4.36,9,8.75,18.07,13.14,27.14-3.44.57-2.15,3.34-2.49,5.35-3.56-.92-3.5-4.68-4.79-7-2.12-3.86-4.1-7.31-8.36-8.94-.65-2.71,1-4.76,1.77-6.37l-2.75-4.73L885,436.54c-4.52-6.16-9.11-12.3-11.72-21.62Z"/><path class="cls-38" d="M686.2,688.18l2.82-.07c5.87.58,11.69.71,17.65,1.83,9.67,1.81,18,6.71,27.37,8.85,1.21,3.84,3.82,5.57,7.83,5.22,2.57,3.93,5.37,7.73,7.63,11.83,1.22,2.21,1.25,4.85-1.87,7.34a71.86,71.86,0,0,0-30.7-24.62c-9-3.84-17.88-8.15-28.07-8C688,690.62,687.09,689,686.2,688.18Z"/><path class="cls-39" d="M257.52,460.2c1.86-.15,2.33-1.48,2.56-3h4.42c1.39-8.59-1.24-18.22,5.37-25.76,3.15-.25,3.13,1.92,3.49,4.19,1.23,7.61-2.69,14.43-3.09,21.77-8.69,10.74-4.7,20.34,2.65,29.64l0,5.05c-1.89.19-2.49,1.5-2.73,3.12-3.29-.52-1.32-5.64-5-5.77a25,25,0,0,0-5-15.95C260,468.9,259.7,464.37,257.52,460.2Z"/><path class="cls-40" d="M702.26,677.5v-2.65c8.26.5,14.4-4.65,21.22-8l0,0c2.1-.25,4.85.79,5.32-2.68,3,1.4,5-3,7.77-1.41,4.61,2.6,1.81-5.36,5.63-3.82a6.44,6.44,0,0,0,2.5-.07h0l-2.07,4.18,2.07,1.1.13,3c-6.48,5.68-15.14,6.56-22.57,10.18-3.22,1.57-7.31,1.48-9.22,5.3l-2.76,0C708.82,679.14,704.75,679.51,702.26,677.5Z"/><path class="cls-41" d="M437.34,645.71c.64-3-1.4-4.74-2.85-6.93-7.46-11.35-12.47-23.4-9.75-38.3,6.89,6.4,6.35,15.23,10.05,22.11S441.94,636.2,445.5,643a7.13,7.13,0,0,0-5.57,5.33A2.45,2.45,0,0,1,437.34,645.71Z"/><path class="cls-42" d="M617.47,145l1.85-1.52c-2.49-1.44-5.17-2.74-4.47-6.39,2.11-.21,4.86.86,5.27-2.68,1.51-.21,2.54-.88,2.47-2.59l2.91-.12-.07.12c1,1.35,2.05,4,2.86,3.87,8.28-.86,12.11,6.78,18.54,9.31h7.75a2.51,2.51,0,0,1,2.66,2.69c-5.47-.15-11-.84-16,2.49-1-5.54-7.86.18-9.15-5.11-1.48,5.05-8-.28-9.24,4.94l-5.39-2.3C617.5,146.81,617.49,145.91,617.47,145Z"/><path class="cls-43" d="M252.1,478.87c-.45,1.18-1,2.46-2.54,1.47a61.62,61.62,0,0,0-40.51-9.44c-1.7.19-3.47.16-4.55-1.75-.71-3.26,2.09-4.27,4.59-6.33h19c.45,1.89,1.71,2.29,3.54,2.81C239.72,468,246.88,472,252.1,478.87Z"/><path class="cls-44" d="M779,659.32c13.27,3.39,24,10.8,33.22,20.72,3.26,3.5,5.61,7.27,6.38,11.51-1.19,2-3,2.21-3.7,1.49-11.06-11.43-23.49-21.26-35.88-31.15A15.75,15.75,0,0,0,779,659.32Z"/><path class="cls-45" d="M503.65,743.75c-.47-10.56,7.08-17,12.63-24.47,4.13-5.53,10.51-9.06,13.88-15.32l-.11.14c3,.48,3,2.62,2.55,6-9,8.74-15.47,20.32-21.59,32.18-1,1.84-2.29,3.78-4.81,4A2.41,2.41,0,0,0,503.65,743.75Z"/><path class="cls-45" d="M938,468.19c9.41-5,19.44-6.42,30.26-4.92,1.82,1.21,4,2.6,4.58,6.34-8.6,2.93-17.51-.63-25.54,2-7.48,2.43-14.57,6-21.76,9.08-2.29-3.6,2.15-4.56,2.16-7.08C932,473.36,935.6,471.94,938,468.19Z"/><path class="cls-46" d="M832.08,608.62c-12.15,11.34-24.08,23-38.51,31.46-3.79,2.22-7.23,4.21-9.13,8.25l-.18.14-10.34,0-.19-.14.17-2.63-.16.15c4.66.26,8.07-2.57,11.37-5.09,13.92-10.6,27.65-21.44,41.45-32.19Z"/><path class="cls-47" d="M427,717.34c1.6-2.78,1.61-6.51,4.94-8.25,5.75-2.8,9.36-8.87,15.92-10.43,2.15-.15,4.92,1,5.37-2.64,3.67-3.7,8.42-4.56,13.31-5.06.1,1.82,1.33,2.42,2.89,2.64C455.3,700,443.2,709.29,432,719.9Z"/><path class="cls-48" d="M394.7,624.59a37.83,37.83,0,0,0,11.85,15.15c4.18,3.35,11.11,0,14,4.7a36.28,36.28,0,0,0,11.48,11.92c0,.91,0,1.83-.05,2.74l-5.29-.18.08.08c-.53-3.46-3.24-2.58-5.43-2.72l.13.11c-2.65-5.68-7.76-7.29-13.38-8l.15.12c-4.66-9-15.45-11-21.32-18.63C392.34,632.22,391.14,624.89,394.7,624.59Z"/><path class="cls-49" d="M289.07,425.81c3.59-.53,2.26-3.47,2.71-5.54,4.64,1.86,6-3.88,9.69-4.25,3,4.85-1.3,8-2.83,11.6-2,4.61-5.08,8.75-4.53,14.14l-5.06,2.6-5.23,2.9c-.34-3.38-2.85-2.85-5.08-2.82C280.57,437.34,286.61,432.57,289.07,425.81Z"/><path class="cls-50" d="M519.41,688.07c0-1.73-.07-3.46-.11-5.19l2.81-.08h2.39c1.33,3.44,4.24,5.52,7.07,7.44,1.45,1,3.34.3,3.64-2l2.69-.06c3.72,2.7,8,2.57,12.29,2.61,5.52,0,11.15-.66,16.49.87,0,1.82.52,3.79-1,3.87-14.58.74-29.22,2.37-43.53-2.23C522,691.12,522.88,688.47,519.41,688.07Z"/><path class="cls-51" d="M432,659.1c0-.91,0-1.83.05-2.74l2.75,0c5.29-2.2,8.48,2.94,13.74,3.11l-8.62-11.1A7.13,7.13,0,0,1,445.5,643a3.12,3.12,0,0,1,2.6,3.46c-.19,3.75,1.88,5.9,5.13,7.2-.67,2.71,1.17,4.73,2,7.26-1.67.93-4.57.39-4.67,3.39,0,.85,0,1.69,0,2.53-.65,2.71-2.12,3.43-4.78,1.8l1.56-3.18c-2.68-3-4.27.17-7.12,1.68-2.26-3.94-8.25-.86-10.86-5.56A2.39,2.39,0,0,0,432,659.1Z"/><path class="cls-52" d="M655.05,714.47c10.81,6.88,15.5,18.09,20.61,29,.09,2.7-2.06,3.69-4.11,5.48l-22.06-34.36Z"/><path class="cls-53" d="M885,436.54l1.76-3.23,2.75,4.73c-.82,1.61-2.42,3.66-1.77,6.37-.08,13.36-3.14,26.33-6.62,39-1,3.74,1.26,9.14-3.81,11.65-.2-1.62-.81-2.88-2.67-3,3.17-15.11,7.9-30,7.74-45.62C882.36,442.74,886,440.3,885,436.54Z"/><path class="cls-54" d="M874.65,492.08c1.86.13,2.47,1.39,2.67,3a125.73,125.73,0,0,1-16,42.21c-.2-1.06-.27-2.39-1.77-2.14-.43.07-.67,1.27-1,2l-2.69,0q.06-8,.13-15.94l-.11.11c2.69-.72,4.82.79,7.06,1.81C868.47,513.33,871.32,502.62,874.65,492.08Z"/><path class="cls-55" d="M885,542.36c-1.78-.09-2.48-1.19-2.63-2.81,4-7.95,8.1-15.89,12.12-23.84,3.85-7.62,7.51-15.33,9.7-23.63l4.77,0c-3.13,14.78-11.19,27.37-18,40.5C889.12,535.94,886.94,539.1,885,542.36Z"/><path class="cls-56" d="M289.05,444.36l5.06-2.6c.36,15,3.9,29.36,7.69,43.72.54,2,.35,4.28.5,6.43-.31,2.06.91,4.83-2.53,5.43C295,479.92,290.43,462.47,289.05,444.36Z"/><path class="cls-57" d="M313,611.74c-5.18,4.7-11.93,5.64-18.24,7.64-2.26-.41-5.38.81-5.84-3,3-4.54,8.45-4.38,13.21-6.23l-5-2.8c.47-6.81,5.36-6.85,10.2-7,.41,3.64,3.19,2.94,5.54,3,.4,3.53-4.49,1.38-4.66,4.31,1.29,1.59,3.16.73,4.71,1.17Z"/><path class="cls-58" d="M270.16,495.19c.24-1.62.84-2.93,2.73-3.12,5.61,15.74,13.76,30.27,21.39,45.05-.27,2,.93,4.58-2.35,5.18-6.7-13.24-13.29-26.53-20.19-39.67C270.44,500.15,270.53,497.7,270.16,495.19Z"/><path class="cls-59" d="M522.19,666.84l-.13-10.48c1.29-3.78,3.77-5.78,7.91-5.27-.38,10.94.95,21.61,5.17,31.8-1.72.08-2.37,1.13-2.49,2.69-3.5-1.52-3.27-5.59-5.48-8C524.36,674.53,526.46,669.21,522.19,666.84Z"/><path class="cls-60" d="M463.75,682.76l2.88.09c-5.05,5.6-12.77,6.59-18.61,10.83-4.21,1.37-6.89,5.72-12,5.73-1.57,0-3.62,2-4,4.38-1.45,0-2.41-.64-2.57-3C436.89,688.11,449.69,684.3,463.75,682.76Z"/><path class="cls-61" d="M784.44,648.33c10.58,2.07,20.83,4.9,29,12.71.09,1.94.88,4.23-2.3,6-9.27-4-18.12-9.7-26.91-15.58v-3Z"/><path class="cls-62" d="M744.67,659a6.44,6.44,0,0,1-2.5.07c-3.82-1.54-1,6.42-5.63,3.82-2.82-1.59-4.82,2.81-7.77,1.41-2.11.22-4.89-.88-5.32,2.68l0,0-8-.09,2.07-4.23-2.19-1.1a8.8,8.8,0,0,1,5.36-5.32c.46,1.78.73,2.65,3.14,1.42,3.21-1.64,6.06-4.65,10.23-3.91.53,2.48,2,3.33,4.22,2.09,1.34-.74,2.31-2.2,4.13-1.84-.23,1.73.88,2.24,2.27,2.5C744.67,657.27,744.66,658.11,744.67,659Z"/><path class="cls-63" d="M911.6,465.57C908.29,456,903,447,903.79,436.36l5.52,0c2.61.73,2.32,2.82,2.37,4.85,0,2.28-.89,5.05,2.44,6,1,4.26-2.06,9.29,2.43,12.89l2.86.14c.1,2.26.72,4.73-2.34,5.69-.47-.94-1-1.87-1.32-2.62Z"/><path class="cls-64" d="M394.7,624.59c-3.56.3-2.36,7.63-7.75,5.24A16.46,16.46,0,0,1,379,622c0-1.77,0-3.55,0-5.33-.06-2.66-.11-5.32-.17-8l4.34,2c.39-.71.77-1.43,1.16-2.15C389,613.13,391.07,619.37,394.7,624.59Z"/><path class="cls-65" d="M321.12,153c2,.16,2.79,1.91,4.48,3.54-1.6,2.14-3.28,4.36-4.43,5.89-2,5.63,3.06,7.28,4.4,10.61-.63,1.08-1.83,1.85-1,3.3,3.91.85,7.44.76,11.07-1.79,1.62-1.13,5.17-1.83,6.28,1.95-4.87,4.1-10.66,3-16.34,2.88l-7.13,5.46L315,184.5c-.16-3.93,3.06-5.91,5.11-8.84C315.37,168,318.78,160.54,321.12,153Z"/><path class="cls-66" d="M882.67,213.56c-.24,1.54-.79,2.8-2.63,2.9-7.9-11.43-14.27-23.92-24-34.09-.47-.49-.22-1.66-.31-2.51l.15-3a23.2,23.2,0,0,1,2.36,0c7.88,11,15.79,22,23.58,33C882.53,210.8,882.42,212.31,882.67,213.56Z"/><path class="cls-67" d="M858.25,579.39c.18,2.11.35,4.21.5,6.07-5.76,7.94-13.59,12.87-21.36,17.87a2.62,2.62,0,0,0-2.82-2.72,7.72,7.72,0,0,0,.27-2.53c8.49-5.64,14.42-13.81,21-21.28C856,578.28,856.62,579.3,858.25,579.39Z"/><path class="cls-68" d="M855.62,518.5l.26,2.75.11-.11c-4.94.33-.66,6.33-4.56,7.43-2-3.23-.23-6.83-1.17-10.09.56-8.22-.28-16.75,5.27-23.88l5.43,0a23.62,23.62,0,0,1-4.83,18.68C852.27,515.12,852.18,516,855.62,518.5Z"/><path class="cls-69" d="M252.07,325.18c2.4-13.59,3.26-27.58,10.28-40,.22,1.44.69,2.65,2.43,2.73q-4.44,19.8-8.93,39.57c-.07.3-.72.46-1.09.69C254.54,326.58,254,325.3,252.07,325.18Z"/><path class="cls-70" d="M723.47,685.37c9,.1,16.12,4.56,22.16,10.66,2.34,2.35,4,5.9-1,8L734,696.2c-4.18-3.1-9.86-3.72-13.31-8A2.65,2.65,0,0,0,723.47,685.37Z"/><path class="cls-71" d="M299.77,497.34c3.44-.6,2.22-3.37,2.53-5.43.85.86,2.42,1.7,2.44,2.57.15,9.16,4.94,16.73,8.3,25,2.15,2.63,7.26,2.31,7.83,7H310.33C306.72,516.8,301.33,507.77,299.77,497.34Z"/><path class="cls-32" d="M379.08,616.66c0,1.78,0,3.56,0,5.33-12.28-9.92-23.35-21-31.86-34.38.12-1.61.82-2.69,2.58-2.78C359.61,595.37,367.15,608,379.08,616.66Z"/><path class="cls-72" d="M381.66,674.83c-1.48,3.48-5.18,4.86-7.28,8.06-2.39,3.67-5.33,8.13-10.9,8.28q-.23-3.06-.44-6.12c1.49-7.72,7.64-11.32,13.46-15.21A6.94,6.94,0,0,0,381.66,674.83Z"/><path class="cls-73" d="M331.07,277.4c-2.2,0-4.89.73-4.92-2.94,8.25-9.25,14.11-20.21,21.49-30.08,1.29-1.73,2.51-3.64,4.88-4.15,0,1.85.07,3.69.11,5.53C345.05,256,337.29,266.2,331.07,277.4Z"/><path class="cls-74" d="M519.58,704.46c-5.77,6.7-11.48,13.47-18.51,18.2-3.54-1.67-2.78-4-2.75-6,5.33-7.49,11.92-13.17,21.3-14.87C519.61,702.65,519.59,703.56,519.58,704.46Z"/><path class="cls-75" d="M657.05,701.75c3.49-.39,4.49,3.42,6.87,4.58l2.55-1.88a65.82,65.82,0,0,1,11.9,11.8c.19,2.25.71,4.46-2.21,6.5-7.5-4.59-13.14-11.61-19-18.32C657.1,703.53,657.07,702.64,657.05,701.75Z"/><path class="cls-76" d="M251.69,467.89c-7.27,1.53-11.93-3.11-16.9-7.1-1.53.89-3.3,3.33-4.3-.56l-2.35-5.42c1.42-3.82,4.45-3,6.52-2A39.4,39.4,0,0,1,251.69,467.89Z"/><path class="cls-77" d="M288.88,616.33c.46,3.86,3.58,2.64,5.84,3l-19,16.22c-3.64-1.89-2.45-4.27-2.55-6.7C278,624.45,281,617.49,288.88,616.33Z"/><path class="cls-78" d="M848.53,274.66l-3.18.16c-6.8-9.38-12.18-19.81-20.73-27.92-.78-.74-.64-2.46-.93-3.73l3.33-.3C835.83,252.35,844.1,262.21,848.53,274.66Z"/><path class="cls-79" d="M302.23,563.58a7.06,7.06,0,0,1,5.13-5.24l10.56,5.29c.44,2.35-3.13,3.13-2.22,5.67l7.83,10.15c-5.08,1.26-1.87,5.37-2.77,8.08-2.49-4.25-2.49-4.25-2.86-8.82-2.25-4.09-6.81-6.33-8.39-11.13C308.53,564.63,305.64,563.14,302.23,563.58Z"/><path class="cls-80" d="M903.78,253.55l-3.14.2c-2.35-.59-3.81-2.66-6.64-2.94-3.36-.33-7.27-1.2-9-5.06,5-1.51,8.89,3,12.91,2.91,8.29-3.63,6.4-11.08,8.14-16.92l-5.94-6.17c4.07-.26,5.89,2.54,8.58,1.6v14.55C908.13,244.79,903.06,248.08,903.78,253.55Z"/><path class="cls-81" d="M924.8,470.9c3.46-8.93,9.5-15.23,18.65-18.37L946.1,458c-1.85,4.88-7.19,5.05-10.58,7.84C931.27,466.08,929.93,472.47,924.8,470.9Z"/><path class="cls-82" d="M911.6,465.57l4.15-2.24c.37.75.85,1.68,1.32,2.62-.56,9.37-5.12,17.5-8.16,26.11l-4.77,0c3.14-5.65,1.63-12.11,2.74-18.2l3.82,1.78C912.3,472.37,911.18,468.9,911.6,465.57Z"/><path class="cls-83" d="M273.37,251l5.34,0c-4.06,10.84-7.9,21.77-13.3,32.06-.28-1.48-.74-2.81-2.59-2.89Z"/><path class="cls-84" d="M320.76,587.53c.9-2.71-2.31-6.82,2.77-8.08,6.75,3.32,8.79,10.67,13.46,15.77-1.57.13-2.73.73-2.89,2.49C328.51,595.82,323.39,593.31,320.76,587.53Z"/><path class="cls-85" d="M744.79,667.26l-.13-3c4.23-3,10-3.33,13.27-7.91a2.64,2.64,0,0,0,2.69-2.75l-.14.13c4.1.29,6.84-1.45,8.09-5.42l-.15.13,5.31-.14.19.14.06,3c-1.2,2.45-3.94,4.32-2.86,7.63l.16-.16a24.3,24.3,0,0,0-14.86,3.24C752.78,664.33,749.3,667,744.79,667.26Z"/><path class="cls-86" d="M394.51,608.8l5.5-.16c4.12,8,8.19,16,12.38,23.89.85,1.59,1.81,3-.33,5.73C405.07,628.77,398.22,619.8,394.51,608.8Z"/><path class="cls-87" d="M320.59,510.68a24.56,24.56,0,0,1-4.23-21.39c9.79,2,6.74,10.78,9.53,16.06C322.22,505.23,324.55,511.09,320.59,510.68Z"/><path class="cls-88" d="M434.88,163.29c-.22,4-5,2.22-6.28,4.94a6,6,0,0,1-4.58-4.82c1.39-4.57,5.11-5.38,9.45-5.55a16.16,16.16,0,0,1,8.15-9.66c1.24,1.44,1.37,3.14,1.1,5.37Z"/><path class="cls-89" d="M744.67,659c0-.85,0-1.69,0-2.54,3.49-1.19,5.44-4.19,7.79-6.68a21.76,21.76,0,0,1,15.88-7c.07,1,.13,2.06.2,3.1-.07.87-.11,1.73-.13,2.6l.15-.13q-6.09-.33-8.09,5.42l.14-.13c-2.13.24-4.86-.69-5.39,2.72-4-1-6.56,3.69-10.57,2.66Z"/><path class="cls-90" d="M439.93,648.34l8.62,11.1c-5.26-.17-8.45-5.31-13.74-3.11-1.19-4.37-8.76-6.64-4.31-12.83,3-1.45,4.31,2.26,6.84,2.21A2.45,2.45,0,0,0,439.93,648.34Z"/><path class="cls-91" d="M450.6,664.32c.1-3,3-2.46,4.67-3.39-.87-2.53-2.71-4.55-2-7.26,7,6.29,15.7,10.56,21.23,18.51h0c-4.67.34-7.83-3-11.69-4.72S455.19,663.29,450.6,664.32Z"/><path class="cls-92" d="M315.48,606c8.52.2,17.2-1.57,25.06,2.79l1.56-2.94a7.55,7.55,0,0,1,5.25,5.34l-24.08,0c-1.23-5-5.31-1.52-7.83-2.66A23,23,0,0,0,315.48,606Z"/><path class="cls-93" d="M654.58,145h-7.75c-6.43-2.53-10.26-10.17-18.54-9.31-.81.08-1.9-2.52-2.86-3.87,7.35-.91,13.8,1.12,18.69,6.65,3,3.35,6.45,4,10.46,3.95Q654.6,143.71,654.58,145Z"/><path class="cls-94" d="M519.41,688.07c3.47.4,2.6,3,2.71,5.2-7.37,1.54-13.88-3.48-21.14-2.77q1.33-2.61,2.66-5.22C509,685.53,514.57,684.78,519.41,688.07Z"/><path class="cls-95" d="M381.66,674.83a6.94,6.94,0,0,1-5.16-5c6.83-3.11,12.59-8.84,20.84-8.48l.52.57C393.43,667.44,386.91,670.34,381.66,674.83Z"/><path class="cls-82" d="M919.41,460.26l-2.86-.14q.21-6.44.4-12.89c3.36-1,2.15-3.9,2.57-6.18.47-2.6-1.38-6.05,2.56-7.47,1,2.64-2.18,6.54,2.42,8.1C923.06,447.94,922.52,454.45,919.41,460.26Z"/><path class="cls-96" d="M347.35,611.2a7.55,7.55,0,0,0-5.25-5.34,27.74,27.74,0,0,0-8-8.15c.16-1.76,1.32-2.36,2.89-2.49l20.86,18.88c-.14,1.73-1.2,2.44-2.81,2.55Z"/><path class="cls-97" d="M643.73,688.11h-2.25c2.66-10.44,6.5-20.67,5.54-31.73,2.13.54,2.35,2.08,2.33,4-.08,5.73,0,11.46,0,17.2C650.66,682.78,644.72,684.13,643.73,688.11Z"/><path class="cls-98" d="M313.31,190.38c-2.73,8.11-8.59,14.21-13.47,20.94l-3.25-.25c2.48-8.31,8.44-14.39,13.51-21Z"/><path class="cls-99" d="M468.8,86.68c-3.41.71-5.37-1.44-7.22-3.63l2.26-4.28c3.13-1.11,5.55-4.24,8.7-2.79,3.22-2.34.16-7,4.52-7.85.05.88.06,1.76,0,2.63L477,78.94C471.51,78.57,469.13,81.54,468.8,86.68Z"/><path class="cls-65" d="M336.53,134.41c-4.79.83-4.86,5.56-6.82,8.6-1.8,2.79-2.31,6.47-6.31,7.29,3.4-8.11,3.49-18,12-23.5C337.62,129.2,336.56,131.88,336.53,134.41Z"/><path class="cls-100" d="M492.83,139.32v7.41c-1.38,6.52-7,4.81-7.78,8.78-1.45.32-2.47,1-2.48,2.69l-5.14-.26,2.29-4.87,7-3.62C488.06,145.88,488,141.13,492.83,139.32Z"/><path class="cls-101" d="M813.67,118.33l-1.74,2.76c-2.25-6-2.06-13.06-8.84-15.81,0-1.66-.7-3.46,1.64-5.31C813.47,103.1,813.42,110.8,813.67,118.33Z"/><path class="cls-24" d="M434.71,187.47c.32-1.88,1.3-2.72,3.34-2.82,4.15-.2,7.89-1.43,10-5.48,3.3.83,7-1.11,10,1.31.21,1.36.61,3.37-.77,3.41C449.59,184.06,442.53,188.2,434.71,187.47Z"/><path class="cls-102" d="M906.5,221.77c-4.53-2-8-4.69-8.27-10.32-.13-2.69-2.2-4.55-4.84-5.49.28-4.46,3.37-2.56,6.53-2.47C900.41,210,905.64,215,906.5,221.77Z"/><path class="cls-103" d="M765.82,86.86c-.1,2.07.8,4.63-2.5,5.16-2.11-5.73-9.47-7.5-10.75-13.74,1.62-2.78,3.69-2.61,5.33-.88C760.73,80.38,763.2,83.69,765.82,86.86Z"/><path class="cls-104" d="M273.08,465.69c-.1-1.83-.21-3.67-.31-5.5-.22-3.12,2.18-5.21,3.12-7.86,3.35-.6,2.35-3.23,2.5-5.32a5.78,5.78,0,0,1,.35-2.57c2.23,0,4.74-.56,5.08,2.82C279.48,453,278.92,460.87,273.08,465.69Z"/><path class="cls-105" d="M652,669.69c-.75,2.67,1.9,6.49-2.65,7.88,0-5.74-.07-11.47,0-17.2,0-1.9-.2-3.44-2.33-4-.2-2.2-1.15-4.69,2.18-5.48a6.9,6.9,0,0,0,5.3,5.38l-.06,5.38C649.63,663.12,652.81,667,652,669.69Z"/><path class="cls-106" d="M720.9,171.66c0-3.13,3.25-4,4.53-6.46.48-2-3.35-3-1.44-5.53,1-1.72,2.86-1.25,4.55-1.38l.64,6.3c1.34,2,4.58,1.19,5,4-.06,1-.13,2.07-.19,3.11a8.47,8.47,0,0,1-6.57-2.54A8,8,0,0,1,720.9,171.66Z"/><path class="cls-107" d="M413.61,89.75l-.26-3.3c1.87-3.32,3-7.11,6.27-9.76,1.89-1.23,3.95-.49,7.13-.21C422.89,82.21,419.63,87.25,413.61,89.75Z"/><path class="cls-108" d="M355.16,137c2.83.19,2.6,2.84,3.5,4.41,3.67,3.22,9.73-2.63,12.45,3.52-6.12.8-12.77-1.82-18.31,2.81l-3.06-.17Z"/><path class="cls-109" d="M744.64,158.31c-.17,2.13.9,4.9-2.72,5.23-1-4.82-7.27-6-7.85-11.11,1.37-3.74,4-2.07,6.65-1.75C742,153.16,743.32,155.74,744.64,158.31Z"/><path class="cls-110" d="M312.85,603.34c-2.35-.08-5.13.62-5.54-3,5.69-5.06,12.05-1.23,19.94-2.42-4.79,3.3-7.66,5.74-11.69,5.68Z"/><path class="cls-111" d="M742.41,653.92c-1.82-.36-2.79,1.1-4.13,1.84-2.24,1.24-3.69.39-4.22-2.09l.07-2.78c5.62.42,8.07-2.38,7.91-7.82l-.12.1,2.79.31c.06,2-.65,4.38,2.46,4.82C746.75,651.16,744.93,652.84,742.41,653.92Z"/><path class="cls-112" d="M442.75,171.81l-.25-3.24c5.25-4.47,5.25-4.47,5.65-10.25,2.09,4.7,7.11,7.69,7.72,13.25L450.52,169C447.82,169.63,445.85,172.3,442.75,171.81Z"/><path class="cls-14" d="M323.45,529.14l-.29,8-4.25-.32c-1.07-3.19-1.79-7.21-6.5-7.46a2.42,2.42,0,0,1-2.08-2.83h10.54C321,528.09,321.73,529.1,323.45,529.14Z"/><path class="cls-113" d="M320.59,510.68c4,.41,1.63-5.45,5.3-5.33v20.71C323.52,520.92,320,516.4,320.59,510.68Z"/><path class="cls-114" d="M683.91,84.18c-2.41-.36-3.66-2.12-5.46-5,6.25.29,12.17,6,16.6-1.76,1.28,2.62,1.64,3.36,2,4.1C693.43,86.22,688.3,83.37,683.91,84.18Z"/><path class="cls-115" d="M771.25,627.54c-1.07,5.45-3,10.36-8.66,13.51,1.09-6.64,1.09-6.64,8.44-16.74C771.11,625.39,771.18,626.46,771.25,627.54Z"/><path class="cls-116" d="M689.06,155.27c-3.54-3.84-2.63-8.57-2.63-13.12,3.86.89,2.31,4.09,2.84,6.77L697,153c-.07,1.88-1.27,2.59-2.93,2.83Z"/><path class="cls-117" d="M787.2,184.72h-3.71c-2.85-2.57,3.1-4.23.42-6.65-1.2-1.75-3.1-1-4.71-1.31,0-1.63-.59-3.38,1-4.84,3.79-1.5,4.87,1.86,7,4.27Z"/><path class="cls-118" d="M874.4,222.09c.43,4-1.38,6.51-5.17,7.67-3-1-5.22-2.58-5.36-6.25C866.76,218.77,871.53,226.67,874.4,222.09Z"/><path class="cls-119" d="M628.16,73.27c.44-1.94,1.64-2.57,3.6-2.53,6.76.12,13.52.1,20.27.13a3.18,3.18,0,0,1-3.57,2.69C641.69,73.42,634.93,73.36,628.16,73.27Z"/><path class="cls-120" d="M858.25,579.39c-1.63-.09-2.25-1.11-2.36-2.59q4-5.26,7.9-10.54a2.53,2.53,0,0,1,2.75,2.65C865.23,573.56,860.11,575.19,858.25,579.39Z"/><path class="cls-100" d="M506.25,134.38V138c-2.32,1.28-5-1.2-7,1.09-1.46-1.34-.76-3.11-1-4.7C501.48,130.69,503.29,130.69,506.25,134.38Z"/><path class="cls-121" d="M834.57,600.61a2.62,2.62,0,0,1,2.82,2.72c-1,2.52-2.58,4.49-5.31,5.29l-5.52-.09C828.55,605.2,831,602.29,834.57,600.61Z"/><path class="cls-122" d="M797.85,611.34l-5.91-.23c.2-4.19,2.33-6.72,6.59-8.05C800.52,606.36,802,609.06,797.85,611.34Z"/><path class="cls-123" d="M458.65,173.8c1.51-3.36,5.48-2.77,7.76-5l5.43,2.61L475,173.8Z"/><path class="cls-124" d="M826.94,224.24l-1.14,2c-5-4.13-4.53-9.73-4.21-15.31C826.2,214.24,827,219.07,826.94,224.24Z"/><path class="cls-125" d="M667.85,161v-3.82l12.25-1.45c2-.41,3.24.28,3.58,2.36C679,162.06,673.27,160.82,667.85,161Z"/><path class="cls-126" d="M622.9,150c1.25-5.22,7.76.11,9.24-4.94,1.29,5.29,8.16-.43,9.15,5.11Z"/><path class="cls-127" d="M535.43,150.11c.44-2,1.69-2.46,3.66-2.57,4.81-.29,9.86,2.05,14.42-3,.2,3.1.28,4.35.36,5.6Z"/><path class="cls-128" d="M744.61,105.47c.26,2.82,3.19,2,4.64,3.37-.79,2.79-3.27,1.2-4.82,1.89-2.37-.28-4.94.53-7-1.25-.16-.8-.32-1.56-.5-2.39C738.87,103.79,742,105.73,744.61,105.47Z"/><path class="cls-129" d="M373.77,107.92c-3.34-1.07-5.27,2.3-8.18,2.6,0-4.53,2.63-7.56,4.89-10.73C375.72,101.75,373.19,105.31,373.77,107.92Z"/><path class="cls-130" d="M655.05,714.47l-5.56.1-9.31-11.35C648.26,705.3,651.59,710,655.05,714.47Z"/><path class="cls-131" d="M787.17,137.09c4.65,1,9.44,1.57,13.07,5.13H788.72C786.62,141.24,786.91,139.16,787.17,137.09Z"/><path class="cls-132" d="M819.13,203.19l-5.72-2.51c-1.89-.54-2.66-1.73-2.14-3.67,1.77-3,4.19-1.39,5.9-1.55C819.66,198.17,818.68,200.82,819.13,203.19Z"/><path class="cls-133" d="M365.56,200.59l-3.58.3c-2.14,1.16-.65,5.36-4.4,5,.33-4.48-.23-9.49,6-10.49C366.48,196.39,365.69,198.61,365.56,200.59Z"/><path class="cls-134" d="M654.58,145q0-1.29,0-2.58c3.82-.27,2.33-7.71,7.79-5.77,1.4,4.27-3.51,7.09-2.57,11.25a21.91,21.91,0,0,1-2.56-.21A2.51,2.51,0,0,0,654.58,145Z"/><path class="cls-135" d="M887.46,563.74c5.13-.06,10.26-.1,15.39-.22a3.05,3.05,0,0,1,3.45,2.83c-5,0-10-.13-15-.11A3.61,3.61,0,0,1,887.46,563.74Z"/><path class="cls-136" d="M257.17,563.57c.43,2.65,2.27,2.92,4.44,2.65,1.84-.22,3.06.46,3.43,2.37H252.81C250.91,563.47,254.28,563.75,257.17,563.57Z"/><path class="cls-137" d="M432.23,110.7,430,109.58l2.1-4c2.43-.15,4.91-.92,7.19.61.19.78.38,1.53.58,2.36C438.18,112.11,434.83,110.12,432.23,110.7Z"/><path class="cls-138" d="M924.5,441.68c-4.6-1.56-1.42-5.46-2.42-8.1.08-2.58.17-5.17.25-7.75l4.51,2.54C925,432.61,925,437.19,924.5,441.68Z"/><path class="cls-139" d="M710.14,89.17c1.72,5.51,4.31,2,6.71.66,1.74,1.17,1.18,3,1.27,4.63-4.65,0-9.94,2-12.8-3.83C706.73,88.78,708.58,89.52,710.14,89.17Z"/><path class="cls-140" d="M712.86,78.75c-.41,3.56-3.18,2.5-5.3,2.71l-5.29-2.68v-2.7c0-.89,0-1.78,0-2.68Q707.58,76.08,712.86,78.75Z"/><path class="cls-141" d="M763.21,192.64c.24,3.24,3.93,4.06,4.81,6.89-1.4,1.46-2.36,3.49-4.74,3.73,1.27-4.62-3.35-6.29-4.83-9.5C759.81,192.22,761.58,192.71,763.21,192.64Z"/><path class="cls-142" d="M527.52,73.23a17.92,17.92,0,0,1,18.35,0Z"/><path class="cls-143" d="M455.75,70.76c-2.15-.06-4.77.8-5.2-2.64,1.28-3.2,3-5.75,7-4.84C460.67,66.82,456.12,68.26,455.75,70.76Z"/><path class="cls-144" d="M855.92,176.83l-.15,3c-3.74-.13-7.49-.37-11.23-.34-2.23,0-4.11-.23-5-2.56,4-1,8.67,1.68,12-2.39Z"/><path class="cls-145" d="M723.47,685.37a2.65,2.65,0,0,1-2.78,2.81c-4.18-.45-8.08-1.43-10.53-5.31l.08-.09,2.76,0A14.68,14.68,0,0,1,723.47,685.37Z"/><path class="cls-146" d="M869,598.4c-.44,1.92-1.71,2.4-3.57,2.36-3.28-.08-6.56.06-9.84.11l-3-2.47Z"/><path class="cls-147" d="M726.54,68.08l-5.43,2.58c-.45-2.39-4.43-3.54-2-7.42C723,62.22,724.94,64.82,726.54,68.08Z"/><path class="cls-148" d="M638.57,55.19c-2.18,3.42-3,3.4-5.07-.1Z"/><path class="cls-149" d="M747.17,648.3c-3.11-.44-2.4-2.83-2.46-4.82C748.51,643.57,747.18,646.27,747.17,648.3Z"/><path class="cls-150" d="M543.23,55.07c-2,3.49-2.87,3.52-5.05.16Z"/><path class="cls-151" d="M771.25,627.54c-.07-1.08-.14-2.15-.22-3.23a3.65,3.65,0,0,1,.35-2.32c1.79.06,2.37,1.25,2.6,2.77A2.94,2.94,0,0,1,771.25,627.54Z"/><path class="cls-152" d="M281.13,250.85c2-3.5,2.8-3.55,5-.26Z"/><path class="cls-153" d="M811,242.85c2.14-3.52,3-3.53,5.13,0Z"/><path class="cls-154" d="M389.69,224.77c-.07-1-.13-2.08-.2-3.13l1.75-1.62C393.16,222.39,392.36,223.84,389.69,224.77Z"/><path class="cls-155" d="M371,208.5c-3.43-.42-2.3-3.06-2.48-5.06C372.35,203.65,370.94,206.43,371,208.5Z"/><path class="cls-156" d="M416.49,195.67c-1.71-.31-2.92-1.1-2.95-3H418C418.37,194.63,417.7,195.34,416.49,195.67Z"/><path class="cls-157" d="M747.33,187.55c1.92-3.83,2.84-3.9,5.16-.39Z"/><path class="cls-158" d="M424.22,187.12c2.34-3.46,3.23-3.39,5.16.39Z"/><path class="cls-159" d="M389.94,179.57c3.41,2.23,3.39,3.05-.17,5.12Z"/><path class="cls-160" d="M479.5,674.91l-4.83,0-.21-2.7h0C476.52,672.38,479.4,671.08,479.5,674.91Z"/><path class="cls-161" d="M734.06,174.19c-.41,3.45-3,2.51-5.09,2.52C729.31,173.13,732,174.36,734.06,174.19Z"/><path class="cls-162" d="M514.24,158.16c.45-3.46,3.14-2.37,5.2-2.55C519,159.16,516.44,158.25,514.24,158.16Z"/><path class="cls-163" d="M816,153.29c0,1.72-1,2.3-2.52,2.44l-1.71-1.54C812.91,152.66,814.48,153.12,816,153.29Z"/><path class="cls-164" d="M363.49,156c-1.41-.34-2.71-.8-2.7-2.62,1.49-.28,3-.86,4.38.27A2.07,2.07,0,0,1,363.49,156Z"/><path class="cls-165" d="M855.62,518.5c-3.44-2.47-3.35-3.38.51-5.19Z"/><path class="cls-166" d="M659.81,150c0,3.68-2.69,2.9-4.89,2.91C654.88,149.11,657.89,150.46,659.81,150Z"/><path class="cls-167" d="M519.87,153.37c-1.76-.4-3-1.27-3-3.28l4.59.42C521.76,152.25,521.07,153,519.87,153.37Z"/><path class="cls-168" d="M476.72,150.19c-2.09,0-4.53.7-4.91-2.56C473.71,148,476.56,146.5,476.72,150.19Z"/><path class="cls-169" d="M617.47,145c0,.91,0,1.81,0,2.71-1.58-.13-3.32.48-4.74-1.05C613.57,144,615.86,145.39,617.47,145Z"/><path class="cls-170" d="M805.59,145c2.2-3.72,3-3.72,5.27,0Z"/><path class="cls-171" d="M519.58,704.46c0-.9,0-1.81,0-2.72l5-.16a4.47,4.47,0,0,1,0,2.18Z"/><path class="cls-172" d="M524.6,703.76a4.47,4.47,0,0,0,0-2.18c2.24-.07,5-1.33,5.45,2.52l.11-.14Z"/><path class="cls-173" d="M657.05,701.75c0,.89.05,1.78.07,2.68l-5-.81C653.25,700.2,655.39,701.79,657.05,701.75Z"/><path class="cls-174" d="M368.78,547.38c-.27,1.49-.79,2.75-2.61,2.8-.25-1.49-.85-3,.29-4.4A1.88,1.88,0,0,1,368.78,547.38Z"/><path class="cls-175" d="M548.56,131.89c-1.52,3.76-3.21,3.86-5.08.24Z"/><path class="cls-176" d="M840.31,129.2c3.54.73,2.1,3.45,2.23,5.55C839.46,133.83,839.93,131.5,840.31,129.2Z"/><path class="cls-177" d="M392.35,126.4v-5.18a2.37,2.37,0,0,1,2.57,1.93C395.19,125,394.28,126.16,392.35,126.4Z"/><path class="cls-178" d="M840,465.53h-5.1c0-1.35.57-2.52,1.9-2.75C838.75,462.43,839.79,463.57,840,465.53Z"/><path class="cls-179" d="M503.65,743.75a2.41,2.41,0,0,1,2.55,2.58l-1.43,1.84C503.17,747,503.62,745.32,503.65,743.75Z"/><path class="cls-180" d="M821.31,123.71c-1.84,0-2.4-1.21-2.63-2.75.25-1.17.77-2,2.63-1.73Z"/><path class="cls-181" d="M781.89,115.61c0-1.76,1.21-2.33,2.7-2.58a8.08,8.08,0,0,1,2.39.39c0,1.83-1.24,2.46-2.82,2.68A20,20,0,0,1,781.89,115.61Z"/><path class="cls-49" d="M278.39,447c-.15,2.09.85,4.72-2.5,5.32C275.79,450.12,275.14,447.65,278.39,447Z"/><path class="cls-129" d="M381.82,110.55c-3.52-.25-2.65-2.87-2.71-5C383,105.62,381.47,108.58,381.82,110.55Z"/><path class="cls-182" d="M395.21,102.72c3.45,2.15,3.44,3,0,5.06C395.17,106.09,395.19,104.41,395.21,102.72Z"/><path class="cls-183" d="M781.8,105.25c-3.72-2-3.76-2.87-.29-5.19C781.61,101.79,781.71,103.52,781.8,105.25Z"/><path class="cls-184" d="M715.45,666.81l8,.09c-6.82,3.3-13,8.45-21.22,8h0c0-.93,0-1.85,0-2.77l-.09.14c2.12-.26,4.86.74,5.41-2.68a2.41,2.41,0,0,0,2.53-2.46Z"/><path class="cls-185" d="M715.45,666.81l-5.35.28c.52-3,2.67-4.51,5.23-5.61l2.19,1.1Z"/><path class="cls-186" d="M707.57,669.55c-.55,3.42-3.29,2.42-5.41,2.68C702.67,668.72,705.32,669.54,707.57,669.55Z"/><path class="cls-187" d="M702.25,672.09c0,.92,0,1.84,0,2.77h-5.21C697.41,671.35,700.18,672.38,702.25,672.09Z"/><path class="cls-54" d="M858.72,542.65c.11,5.11-4.36,8.35-5.33,13-1.19.12-2,.57-1.85,2.37l4.49.31-.14-.14c-1.26,4.59-5.15,2-7.79,2.87l-.13-.16v-5.28q2.67-5.29,5.35-10.57c3.8.25,1.41-5.58,5.22-5.33Z"/><path class="cls-188" d="M900.9,460.38c.34-2-.95-4.78,2.49-5.35.14,5.23,5.4,9.87,1.87,15.81C903.56,467.26,900.71,464.46,900.9,460.38Z"/><path class="cls-189" d="M866.52,550.33l2.05,1-2.11,4c-3.82-.16-6.5,3.91-10.57,2.82l.14.14-.08-2.69Z"/><path class="cls-190" d="M904,431.3l4.42,0c.29,1.67.57,3.34.86,5l-5.52,0Z"/><path class="cls-191" d="M858.72,542.65l-.18-2.92c0-.87,0-1.75,0-2.62.32-.68.56-1.88,1-2,1.5-.25,1.57,1.08,1.77,2.14C861.29,539.5,861.65,541.87,858.72,542.65Z"/><path class="cls-192" d="M328.66,561.16c-1.93-.59-4.87.67-5.25-2.82,0-.86,0-1.71.06-2.57.26-6.09-5.59-10-5.75-15.9l5.5-.1c.71,5.67,3.52,10.59,5.54,15.79C328.73,557.43,328.7,559.3,328.66,561.16Z"/><path class="cls-193" d="M344.36,590.1c0,1.54.87,3.2-.74,4.61-2.75-.83-1.21-3-1.41-4.62C342.93,590.06,343.64,590.06,344.36,590.1Z"/><path class="cls-194" d="M649,690.52c.37-2-.2-4.6,2.88-5.09C651.7,687.55,653,690.5,649,690.52Z"/><path class="cls-195" d="M474.46,672.18l.21,2.7c-6.36,1.29-10.77-3.43-16.12-5.25L453.23,667l-2.62-.1c0-.84,0-1.68,0-2.53,4.59-1,8.31,1.45,12.17,3.14S469.79,672.52,474.46,672.18Z"/><path class="cls-51" d="M453.23,667l5.32,2.68c-.39,1.79-1.34,3-3.3,2.36C452.62,671.18,453.47,668.81,453.23,667Z"/><path class="cls-196" d="M421.37,656.28c2.19.14,4.9-.74,5.43,2.72l-2.72.08C422.47,658.83,421.42,658,421.37,656.28Z"/><path class="cls-197" d="M432,659.1a2.39,2.39,0,0,1-2.6,2.49,2.52,2.52,0,0,1-2.69-2.67Z"/><path class="cls-198" d="M408.12,648.34c5.62.76,10.73,2.37,13.38,8C416,655.46,410.68,654.19,408.12,648.34Z"/><path class="cls-199" d="M310.3,550.27c2.75-.4,4.89.91,6.61,2.74s3.85,3.07,6.56,2.76c0,.86-.06,1.71-.06,2.57-4.86,1.07-8.66-2.61-13.2-3-.68-1.35-1.36-2.71-2-4.06Z"/><path class="cls-28" d="M845.35,555.6a6.42,6.42,0,0,0,2.62,0v5.28C844.41,560.46,845.51,557.72,845.35,555.6Z"/><path class="cls-201" d="M744.66,659c4,1,6.57-3.68,10.57-2.66l2.7,0c-3.26,4.58-9,4.95-13.27,7.91l-2.07-1.1Z"/><path class="cls-202" d="M723.45,666.94c.43-3.56,3.21-2.46,5.32-2.68C728.3,667.73,725.55,666.69,723.45,666.94Z"/><path class="cls-203" d="M522.11,682.8l-2.81.08c-3.71-5.06-3.68-8.74.13-13.29.8,2.64,3.6,4.57,2.75,7.79C522.16,679.19,522.14,681,522.11,682.8Z"/><path class="cls-204" d="M522.18,677.38c.85-3.22-1.95-5.15-2.75-7.79a2.71,2.71,0,0,0,2.76-2.75c4.27,2.37,2.17,7.69,5,10.75a21.11,21.11,0,0,0-2.38-.08A22.81,22.81,0,0,1,522.18,677.38Z"/><path class="cls-205" d="M448,696.16l5.26-.14c-.45,3.61-3.22,2.49-5.37,2.64A14.9,14.9,0,0,0,448,696.16Z"/><path class="cls-59" d="M524.79,677.51l-.29,5.3h-2.39c0-1.81,0-3.61.07-5.42A22.81,22.81,0,0,0,524.79,677.51Z"/><path class="cls-28" d="M853.32,545.06c0-2.6,0-5.2,0-7.79a19.12,19.12,0,0,1,2.5-.19l2.69,0c0,.87,0,1.75,0,2.62C854.73,539.48,857.12,545.31,853.32,545.06Z"/><path class="cls-206" d="M757.93,656.34l-2.7,0c.53-3.41,3.26-2.48,5.39-2.72A2.64,2.64,0,0,1,757.93,656.34Z"/><path class="cls-207" d="M273.23,465.52l-.21,7.85C269.44,470.35,269.5,468.17,273.23,465.52Z"/><path class="cls-208" d="M317.72,539.87c-3.4-2.7-4.48-6.57-5.31-10.55,4.71.25,5.43,4.27,6.5,7.46l4.25.32.06,2.67Z"/><path class="cls-209" d="M323.47,568.87c.37-3.57,3.13-2.39,5.18-2.61C328.25,569.76,325.56,568.73,323.47,568.87Z"/></g></svg>
