<svg id="Réteg_1" data-name="Réteg 1" xmlns="http://www.w3.org/2000/svg" viewBox="0 0 32 32"><defs><style>.cls-1{fill:#fff;}</style></defs><title>twitter</title><path class="cls-1" d="M16,0A16,16,0,1,0,32,16,16,16,0,0,0,16,0Zm0,29.5A13.5,13.5,0,1,1,29.5,16,13.49,13.49,0,0,1,16,29.5Z"/><path class="cls-1" d="M24,10.68a5.51,5.51,0,0,1-1.83.56,3.72,3.72,0,0,0,1.37-1.93,5.07,5.07,0,0,1-2.06.79h0A3.19,3.19,0,0,0,19.1,9a3.43,3.43,0,0,0-3.3,3.55,4.17,4.17,0,0,0,.08.8h0a9.31,9.31,0,0,1-7-3.69,3.71,3.71,0,0,0,1,4.69A1.94,1.94,0,0,1,8.45,14,3.41,3.41,0,0,0,11,17.43a2.48,2.48,0,0,1-1.38.11,3.18,3.18,0,0,0,3,2.41A5.17,5.17,0,0,1,8,21.43,9.44,9.44,0,0,0,13.16,23c5.33,0,9.46-4.65,9.24-10.38V12.5A6,6,0,0,0,24,10.68Z"/></svg>